<svg width="105" height="28" viewBox="0 0 105 28" fill="none" xmlns="http://www.w3.org/2000/svg">
<g clip-path="url(#clip0_2_15)">
<path d="M33.9045 11.14C33.9045 9.26777 32.0729 7.27933 28.9033 7.27933C25.3439 7.27933 21.4339 9.87463 20.8363 15.0523C20.2258 20.2817 23.4993 22.6058 26.7988 22.6058C30.0984 22.6058 31.8261 21.3275 33.5927 19.6232C32.0729 17.7251 30.1113 18.6031 29.7346 18.7968C29.3189 19.0034 28.7863 19.2874 27.6952 19.2874C26.4221 19.2874 25.1231 18.7193 25.1231 16.3564C33.281 15.5559 33.9045 13.0122 33.9045 11.14ZM29.8645 11.4499C29.8126 12.0309 29.5787 13.0251 25.4479 13.5804C26.3182 10.5073 27.9809 10.2749 28.7474 10.2749C29.4618 10.2749 29.9165 10.8301 29.8645 11.4499ZM16.0429 11.9535C16.0429 11.9535 14.2893 17.4281 14.1464 17.88C14.0944 17.4152 12.8084 7.58922 12.8084 7.58922C9.82061 7.58922 8.22281 9.70678 7.37845 11.9405C7.37845 11.9405 5.24805 17.4281 5.06619 17.893C5.0532 17.4669 4.74143 12.0051 4.74143 12.0051C4.55957 9.26777 2.03947 7.60213 0 7.60213L2.46814 22.4896C5.59879 22.4767 7.28752 20.372 8.17085 18.1383C8.17085 18.1383 10.0544 13.2963 10.1324 13.0768C10.1454 13.2834 11.4834 22.4896 11.4834 22.4896C14.627 22.4896 16.3157 20.5141 17.225 18.3578L21.6287 7.60213C18.5241 7.60213 16.8873 9.70678 16.0429 11.9535ZM45.4398 7.25351C43.5043 7.25351 42.0234 8.29937 40.7763 9.8359V9.82298L41.8935 0.875C39.3214 0.875 37.23 3.09586 36.8273 6.40132L34.8788 22.3734C36.3596 22.3734 37.9315 21.9473 38.7758 20.8627C39.5293 21.8311 40.6594 22.6058 42.3352 22.6058C46.6739 22.6058 49.6487 17.596 49.6487 12.896C49.6227 8.60926 47.5312 7.25351 45.4398 7.25351ZM45.0371 14.9361C44.5825 17.5572 43.1146 19.3391 41.6986 19.3391C40.2697 19.3391 39.6592 18.7064 39.6592 18.7064C39.932 16.4081 40.1008 15.0007 40.6204 13.787C41.1401 12.5732 42.3741 10.6364 43.6602 10.6364C44.9202 10.6364 45.4918 12.3021 45.0371 14.9361ZM60.4825 7.60213H57.4558L57.4688 7.44718C57.6766 5.48457 58.1443 4.45161 59.6901 4.28376C60.7423 4.18046 61.21 3.63816 61.3269 3.04421C61.4178 2.57938 61.7036 0.965384 61.7036 0.965384C55.6242 0.926648 53.7146 3.53486 53.221 7.51174L53.208 7.60213H53.143C52.1558 7.60213 51.0646 8.71256 50.8827 10.12L50.8178 10.6364H52.8442L51.1425 24.6072L50.6229 27.1121C50.6879 27.1121 50.7658 27.125 50.8308 27.125C53.6756 27.0217 55.4943 24.7879 55.8969 21.547L57.222 10.6364H58.1702C59.1055 10.6364 60.1967 9.70678 60.3916 8.15734L60.4825 7.60213ZM76.2267 7.34389C72.7323 7.34389 69.4328 9.90046 68.4195 13.9161C67.4063 17.9317 68.9391 22.6833 74.0833 22.6833C79.2144 22.6833 82.1762 17.738 82.1762 13.6191C82.1762 9.52601 79.3833 7.34389 76.2267 7.34389ZM77.6426 14.807C77.4607 16.6276 76.6553 19.3907 74.447 19.3907C72.2257 19.3907 72.5374 16.1628 72.7583 14.6262C72.9921 12.9864 73.9144 10.6493 75.9019 10.6493C77.6816 10.6493 77.8504 12.754 77.6426 14.807ZM99.4402 11.9535C99.4402 11.9535 97.6865 17.4281 97.5436 17.88C97.4917 17.4152 96.2056 7.58922 96.2056 7.58922C93.2179 7.58922 91.6201 9.70678 90.7757 11.9405C90.7757 11.9405 88.6453 17.4281 88.4634 17.893C88.4505 17.4669 88.1387 12.0051 88.1387 12.0051C87.9568 9.26777 85.4367 7.60213 83.3973 7.60213L85.8524 22.4896C88.9831 22.4767 90.6718 20.372 91.5551 18.1383C91.5551 18.1383 93.4387 13.2963 93.5037 13.0768C93.5296 13.2834 94.8546 22.4896 94.8546 22.4896C97.9983 22.4896 99.687 20.5141 100.596 18.3578L105 7.60213C101.908 7.60213 100.272 9.70678 99.4402 11.9535ZM63.3404 0.965384L60.7943 21.3792L60.2747 23.897C60.3396 23.897 60.4175 23.9099 60.4825 23.9099C63.2234 23.8712 65.172 21.4825 65.5357 18.474L67.0036 6.76285C67.4453 3.18624 65.3019 0.965384 63.3404 0.965384Z" fill="black"/>
</g>
<defs>
<clipPath id="clip0_2_15">
<rect width="105" height="26.25" fill="white" transform="translate(0 0.875)"/>
</clipPath>
</defs>
</svg>
