<svg width="105" height="24" viewBox="0 0 105 24" fill="none" xmlns="http://www.w3.org/2000/svg">
<g clip-path="url(#clip0_2_43)">
<path d="M42.1313 13.7546L40.3035 8.75495C40.2289 8.55047 39.9439 8.55047 39.8691 8.75495L38.0417 13.7549C38.0287 13.7905 38.0244 13.8287 38.0291 13.8663C38.0338 13.9039 38.0474 13.9398 38.0688 13.9709C38.0901 14.002 38.1185 14.0274 38.1517 14.0449C38.1848 14.0625 38.2216 14.0716 38.2589 14.0716H41.914C41.9514 14.0716 41.9882 14.0624 42.0213 14.0449C42.0544 14.0273 42.0828 14.0019 42.1041 13.9708C42.1254 13.9396 42.139 13.9037 42.1437 13.8661C42.1484 13.8285 42.1441 13.7903 42.1311 13.7548L42.1313 13.7546ZM42.9756 16.5649H37.1975C37.1502 16.5649 37.1041 16.5796 37.0653 16.607C37.0265 16.6343 36.9968 16.6731 36.9804 16.7181L35.8428 19.829C35.8264 19.874 35.7968 19.9128 35.758 19.9402C35.7191 19.9676 35.673 19.9823 35.6257 19.9823H33.1213C33.0835 19.9823 33.0462 19.9729 33.0128 19.9548C32.9793 19.9368 32.9507 19.9108 32.9295 19.8789C32.9083 19.8471 32.8951 19.8105 32.8911 19.7723C32.887 19.7341 32.8923 19.6955 32.9064 19.6598L38.6723 5.08416C38.6895 5.04062 38.7193 5.00333 38.7576 4.97708C38.7959 4.95083 38.8411 4.93683 38.8874 4.93687H41.2854C41.3799 4.93687 41.465 4.99516 41.5003 5.08416L47.2661 19.6597C47.2802 19.6953 47.2855 19.734 47.2815 19.7722C47.2775 19.8105 47.2643 19.8471 47.2431 19.879C47.2219 19.9109 47.1933 19.937 47.1598 19.955C47.1263 19.973 47.089 19.9825 47.0511 19.9824H44.5472C44.4999 19.9824 44.4537 19.9677 44.4149 19.9403C44.3761 19.9129 44.3465 19.874 44.3301 19.829L43.1924 16.7181C43.1759 16.6731 43.1463 16.6343 43.1075 16.607C43.0687 16.5796 43.0225 16.5649 42.9753 16.5649H42.9756ZM48.4394 10.0522H50.5814C50.6429 10.0522 50.7018 10.0769 50.7452 10.121C50.7887 10.1651 50.8131 10.2249 50.8131 10.2872V19.7473C50.8131 19.8096 50.7887 19.8694 50.7452 19.9134C50.7018 19.9575 50.6429 19.9823 50.5814 19.9823H48.4394C48.378 19.9823 48.3191 19.9575 48.2757 19.9134C48.2322 19.8694 48.2078 19.8096 48.2078 19.7473V10.2871C48.2078 10.2247 48.2322 10.1649 48.2757 10.1209C48.3191 10.0768 48.378 10.052 48.4394 10.052V10.0522ZM58.6251 12.3533C58.6251 12.4157 58.6007 12.4755 58.5572 12.5195C58.5138 12.5636 58.4549 12.5884 58.3934 12.5884H58.3286C57.2695 12.5884 56.4926 12.8463 55.9985 13.3621C55.5041 13.8779 55.2573 14.7306 55.2573 15.9199V19.7473C55.2573 19.8096 55.2329 19.8694 55.1895 19.9134C55.1461 19.9575 55.0871 19.9823 55.0257 19.9823H52.9047C52.8433 19.9823 52.7844 19.9575 52.7409 19.9134C52.6975 19.8694 52.6731 19.8096 52.6731 19.7473V10.2871C52.6731 10.2247 52.6975 10.1649 52.7409 10.1209C52.7844 10.0768 52.8433 10.052 52.9047 10.052H55.0044C55.0658 10.052 55.1247 10.0768 55.1682 10.1209C55.2116 10.1649 55.236 10.2247 55.236 10.2871V12.1583H55.2785C55.5326 11.3845 55.935 10.7902 56.486 10.3743C57.0365 9.95896 57.7143 9.75103 58.5191 9.75103H58.6251V12.3532V12.3533ZM64.4819 12.2659C64.4205 12.2659 64.3616 12.2907 64.3181 12.3347C64.2747 12.3788 64.2503 12.4386 64.2503 12.5009V16.4358C64.2503 16.837 64.3275 17.1236 64.4831 17.2955C64.6383 17.4674 64.9067 17.5534 65.2879 17.5534H65.5012C65.5626 17.5534 65.6215 17.5782 65.6649 17.6223C65.7084 17.6663 65.7328 17.7261 65.7328 17.7885V19.7686C65.7328 19.8309 65.7084 19.8907 65.6649 19.9348C65.6215 19.9788 65.5626 20.0036 65.5012 20.0036H64.5889C63.6428 20.0036 62.9157 19.7565 62.4074 19.2621C61.8989 18.7678 61.6447 18.0337 61.6447 17.0591V12.5009C61.6447 12.4386 61.6203 12.3788 61.5769 12.3347C61.5335 12.2907 61.4745 12.2659 61.4131 12.2659H60.0761C60.0146 12.2659 59.9557 12.2411 59.9123 12.1971C59.8688 12.153 59.8444 12.0932 59.8444 12.0309V10.2871C59.8444 10.2247 59.8688 10.1649 59.9123 10.1209C59.9557 10.0768 60.0146 10.052 60.0761 10.052H61.4133C61.4747 10.052 61.5336 10.0273 61.577 9.98319C61.6205 9.93911 61.6449 9.87933 61.6449 9.81699V6.31073C61.6449 6.2484 61.6693 6.18862 61.7127 6.14454C61.7562 6.10046 61.8151 6.0757 61.8765 6.0757H64.0185C64.0799 6.0757 64.1388 6.10046 64.1823 6.14454C64.2257 6.18862 64.2501 6.2484 64.2501 6.31073V9.81699C64.2501 9.87933 64.2745 9.93911 64.318 9.98319C64.3614 10.0273 64.4203 10.052 64.4817 10.052H66.0306C66.0921 10.052 66.151 10.0768 66.1944 10.1209C66.2379 10.1649 66.2623 10.2247 66.2623 10.2871V12.031C66.2623 12.0934 66.2379 12.1531 66.1944 12.1972C66.151 12.2413 66.0921 12.2661 66.0306 12.2661H64.4819V12.2659ZM74.2903 17.0376C74.7775 16.5218 75.021 15.8483 75.021 15.0171C75.021 14.1863 74.7775 13.5125 74.2903 12.9967C73.8031 12.4809 73.164 12.223 72.3733 12.223C71.5824 12.223 70.9437 12.4809 70.4564 12.9967C69.9694 13.5125 69.7257 14.1863 69.7257 15.0171C69.7257 15.8483 69.9694 16.5218 70.4564 17.0376C70.9437 17.5534 71.5824 17.8113 72.3733 17.8113C73.164 17.8113 73.8031 17.5534 74.2903 17.0376ZM69.3445 19.6813C68.6243 19.2659 68.0558 18.6603 67.6395 17.8651C67.2227 17.0699 67.0146 16.1207 67.0146 15.0171C67.0146 13.914 67.2227 12.9644 67.6395 12.1692C68.0558 11.374 68.6243 10.7689 69.3445 10.353C70.0647 9.93749 70.8552 9.72972 71.7167 9.72972C72.4792 9.72972 73.1322 9.88014 73.6762 10.181C74.2194 10.4818 74.6536 10.9047 74.9786 11.4492H75.021V10.2871C75.021 10.2247 75.0454 10.1649 75.0888 10.1209C75.1322 10.0768 75.1911 10.052 75.2526 10.052H77.3734C77.4348 10.052 77.4938 10.0768 77.5372 10.1209C77.5806 10.1649 77.605 10.2247 77.605 10.2871V19.7471C77.605 19.8094 77.5806 19.8692 77.5372 19.9133C77.4938 19.9574 77.4348 19.9821 77.3734 19.9821H75.2526C75.1911 19.9821 75.1322 19.9574 75.0888 19.9133C75.0454 19.8692 75.021 19.8094 75.021 19.7471V18.5851H74.9786C74.6536 19.1299 74.2194 19.5523 73.676 19.8532C73.1322 20.154 72.4793 20.3044 71.7167 20.3044C70.8552 20.3044 70.0647 20.0967 69.3445 19.6813ZM86.4255 17.0376C86.9127 16.5218 87.1562 15.8483 87.1562 15.0171C87.1562 14.1863 86.9127 13.5125 86.4255 12.9967C85.9385 12.4809 85.2994 12.223 84.5086 12.223C83.7177 12.223 83.0789 12.4809 82.5918 12.9967C82.1048 13.5125 81.8609 14.1863 81.8609 15.0171C81.8609 15.8483 82.1048 16.5218 82.5918 17.0376C83.0789 17.5534 83.7177 17.8113 84.5086 17.8113C85.2994 17.8113 85.9385 17.5534 86.4255 17.0376ZM83.206 19.8532C82.6623 19.5523 82.228 19.1299 81.9034 18.5851H81.8609V19.7471C81.8609 19.8094 81.8365 19.8692 81.7931 19.9133C81.7497 19.9574 81.6907 19.9821 81.6293 19.9821H79.4873C79.4259 19.9821 79.367 19.9574 79.3235 19.9133C79.2801 19.8692 79.2557 19.8094 79.2557 19.7471V5.17144C79.2557 5.1091 79.2801 5.04932 79.3235 5.00524C79.367 4.96116 79.4259 4.9364 79.4873 4.9364H81.6293C81.6907 4.9364 81.7497 4.96116 81.7931 5.00524C81.8365 5.04932 81.8609 5.1091 81.8609 5.17144V11.4491H81.9034C82.228 10.9046 82.6623 10.4818 83.206 10.181C83.7495 9.87998 84.4027 9.72956 85.1653 9.72956C86.0265 9.72956 86.8174 9.93733 87.5376 10.3529C88.2577 10.7687 88.826 11.3739 89.2426 12.1689C89.659 12.9646 89.8676 13.9141 89.8676 15.0172C89.8676 16.1208 89.659 17.0699 89.2427 17.8652C88.8261 18.6604 88.2579 19.2661 87.5377 19.6813C86.8176 20.0968 86.0266 20.3048 85.1655 20.3048C84.4029 20.3048 83.7497 20.1543 83.2062 19.8533L83.206 19.8532ZM93.4766 19.9823H91.3346C91.2731 19.9823 91.2142 19.9575 91.1708 19.9134C91.1273 19.8694 91.1029 19.8096 91.1029 19.7473V5.17191C91.1029 5.10957 91.1273 5.04979 91.1708 5.00571C91.2142 4.96163 91.2731 4.93687 91.3346 4.93687H93.4766C93.538 4.93687 93.5969 4.96163 93.6403 5.00571C93.6838 5.04979 93.7082 5.10957 93.7082 5.17191V19.7473C93.7082 19.8096 93.6838 19.8694 93.6403 19.9134C93.5969 19.9575 93.538 19.9823 93.4766 19.9823ZM98.5292 12.3521C98.1741 12.6332 97.9343 13.039 97.8101 13.5699C97.776 13.7162 97.8886 13.8566 98.0368 13.8566H102.113C102.255 13.8566 102.366 13.7281 102.343 13.5865C102.262 13.0843 102.049 12.684 101.706 12.3844C101.304 12.0334 100.778 11.8579 100.128 11.8579C99.4787 11.8579 98.9455 12.0226 98.5292 12.3521ZM103.75 11.1161C104.583 12.0406 105 13.3482 105 15.0387V15.3195C105 15.3818 104.976 15.4416 104.932 15.4857C104.889 15.5298 104.83 15.5545 104.768 15.5545H97.9582C97.9243 15.5546 97.8908 15.5622 97.86 15.5767C97.8293 15.5913 97.8021 15.6125 97.7802 15.6389C97.7584 15.6652 97.7425 15.6961 97.7336 15.7293C97.7248 15.7625 97.7232 15.7973 97.7289 15.8312C97.8378 16.4593 98.1115 16.9582 98.5504 17.3278C99.0514 17.7509 99.6836 17.9619 100.446 17.9619C101.43 17.9619 102.342 17.5721 103.179 16.7922C103.282 16.697 103.444 16.7172 103.524 16.833L104.565 18.3497C104.598 18.3969 104.612 18.4546 104.605 18.5119C104.599 18.5691 104.572 18.6219 104.529 18.6603C104.018 19.1143 103.45 19.4974 102.839 19.7996C102.162 20.1362 101.364 20.3048 100.446 20.3048C99.3871 20.3048 98.4619 20.086 97.6713 19.6492C96.8803 19.2123 96.2662 18.5962 95.8287 17.8007C95.3908 17.0055 95.172 16.0849 95.172 15.0387C95.172 13.993 95.3839 13.0688 95.8074 12.2661C96.231 11.4638 96.8241 10.8405 97.5867 10.3961C98.3492 9.95222 99.2387 9.72987 100.256 9.72987C101.752 9.72987 102.917 10.1921 103.75 11.1161ZM51.0928 6.55486C51.0928 7.44141 50.3846 8.16015 49.5107 8.16015C48.6368 8.16015 47.9285 7.44141 47.9285 6.5547C47.9285 5.66799 48.6369 4.94925 49.5107 4.94925C50.3846 4.94925 51.0928 5.66799 51.0928 6.5547" fill="#333333"/>
<path d="M12.1985 0.69746L2.01353 4.97401C1.44715 5.21187 1.45302 6.02838 2.02295 6.25762L12.2504 10.3733C13.149 10.7349 14.1498 10.7349 15.0484 10.3733L25.276 6.25746C25.8458 6.02838 25.8519 5.21202 25.2852 4.97417L15.1005 0.697304C14.1714 0.307137 13.1276 0.307137 12.1984 0.697304" fill="#FCB400"/>
<path d="M14.5569 12.6205V22.9021C14.5569 23.3909 15.0428 23.7259 15.4908 23.5457L26.8873 19.0569C27.0144 19.0057 27.1234 18.917 27.2002 18.8023C27.277 18.6875 27.3181 18.5519 27.3181 18.4132V8.13179C27.3181 7.64276 26.8321 7.30791 26.3842 7.48811L14.9877 11.977C14.8606 12.0281 14.7516 12.1168 14.6748 12.2316C14.598 12.3464 14.5569 12.4819 14.5569 12.6207" fill="#18BFFF"/>
<path d="M11.8956 13.151L8.51334 14.8082L8.16993 14.9766L1.03024 18.4481C0.577809 18.6697 0 18.335 0 17.8248V8.17487C0 7.99029 0.0932647 7.83094 0.218338 7.71107C0.269649 7.65922 0.327861 7.61492 0.391279 7.57945C0.56175 7.47556 0.805103 7.44783 1.01201 7.53087L11.8387 11.884C12.3891 12.1056 12.4323 12.8881 11.8956 13.1512" fill="#F82B60"/>
<path d="M11.8956 13.151L8.51334 14.8082L0.218338 7.71091C0.269659 7.65912 0.327871 7.61487 0.391279 7.57945C0.56175 7.47556 0.805103 7.44783 1.01201 7.53087L11.8387 11.884C12.3891 12.1056 12.4323 12.8881 11.8956 13.1512" fill="black" fill-opacity="0.25"/>
</g>
<defs>
<clipPath id="clip0_2_43">
<rect width="105" height="23.1902" fill="white" transform="translate(0 0.404907)"/>
</clipPath>
</defs>
</svg>
