<svg width="108" height="108" viewBox="0 0 108 108" fill="none" xmlns="http://www.w3.org/2000/svg">
<path d="M52.6748 48.4012C50.654 48.4012 48.6663 49.2626 47.1423 50.9687V42.5706H44.1442V56.7166C44.1442 61.3049 47.8712 65.0319 52.4595 65.0319C57.0478 65.0319 60.7748 61.3049 60.7748 56.7166C60.7748 52.1282 57.2632 48.4012 52.6748 48.4012ZM52.4595 61.835C49.627 61.835 47.3411 59.5491 47.3411 56.7166C47.3411 53.9006 49.627 51.5982 52.4595 51.5982C55.292 51.5982 57.5779 53.8841 57.5779 56.7166C57.5613 59.5325 55.2755 61.835 52.4595 61.835ZM71.2932 48.4012C69.2724 48.4012 67.2847 49.2626 65.7607 50.9687V42.5706H62.7626V56.7166C62.7626 61.3049 66.4896 65.0319 71.0779 65.0319C75.6663 65.0319 79.3932 61.3049 79.3932 56.7166C79.3932 52.1282 75.8816 48.4012 71.2932 48.4012ZM71.0779 61.835C68.2454 61.835 65.9595 59.5491 65.9595 56.7166C65.9595 53.9006 68.2454 51.5982 71.0779 51.5982C73.9104 51.5982 76.1963 53.8841 76.1963 56.7166C76.1963 59.5325 73.9104 61.835 71.0779 61.835ZM27.2153 58.1742V48.8485H30.4454V58.1411C30.4454 60.5098 31.8202 62.0338 34.1393 62.0338C36.4914 62.0338 37.8331 60.5761 37.8331 58.1411V48.8485H41.0797V58.1742C41.0797 62.481 38.4626 65.0319 34.1393 65.0319C29.9153 65.0319 27.2153 62.3982 27.2153 58.1742ZM85.2239 64.6509H81.9939V42.5706H85.2239V64.6509ZM103.478 57.992H91.1374C91.6012 60.4601 93.3405 62.1331 96.3883 62.1331C98.1773 62.1331 100.347 61.454 101.755 60.427L103.097 62.7957C101.49 64.0049 98.9393 64.9988 96.2724 64.9988C90.3589 64.9988 87.808 60.8577 87.808 56.7C87.808 54.3313 88.5368 52.3601 90.0442 50.8031C91.535 49.246 93.5061 48.4509 95.8748 48.4509C98.1276 48.4509 100.016 49.1466 101.44 50.5877C102.882 52.0288 103.61 53.9503 103.61 56.4184C103.577 56.8822 103.561 57.4123 103.478 57.992ZM91.1208 55.3583H100.331C100.066 52.8571 98.227 51.2503 95.8417 51.2503C93.4067 51.2503 91.6012 52.8902 91.1208 55.3583ZM16.9785 48.4012C14.9577 48.4012 12.9699 49.2626 11.446 50.9687V42.5706H8.44785V56.7166C8.44785 61.3049 12.1748 65.0319 16.7632 65.0319C21.3515 65.0319 25.0785 61.3049 25.0785 56.7166C25.0785 52.1282 21.5669 48.4012 16.9785 48.4012ZM16.7632 61.835C13.9307 61.835 11.6448 59.5491 11.6448 56.7166C11.6448 53.9006 13.9307 51.5982 16.7632 51.5982C19.5957 51.5982 21.8816 53.8841 21.8816 56.7166C21.8816 59.5325 19.5957 61.835 16.7632 61.835Z" fill="black"/>
<path d="M6.26135 65.0319C7.39574 65.0319 8.31534 64.1123 8.31534 62.9779C8.31534 61.8435 7.39574 60.9239 6.26135 60.9239C5.12697 60.9239 4.20737 61.8435 4.20737 62.9779C4.20737 64.1123 5.12697 65.0319 6.26135 65.0319Z" fill="#0000FF"/>
</svg>
