<svg width="43" height="30" viewBox="0 0 43 30" fill="none" xmlns="http://www.w3.org/2000/svg">
<path d="M33.7917 14.942C33.7917 13.3042 31.742 11.7521 28.5994 10.7895C29.3246 7.58441 29.0023 5.03443 27.5821 4.21804C27.2547 4.02654 26.872 3.93583 26.454 3.93583V5.05963C26.6856 5.05963 26.872 5.10498 27.0281 5.19066C27.713 5.58373 28.0102 7.08046 27.7785 9.00554C27.7231 9.47925 27.6324 9.97816 27.5216 10.4871C26.5345 10.2452 25.4568 10.0588 24.3236 9.93784C23.6437 9.00554 22.9387 8.15891 22.2286 7.4181C23.8704 5.89114 25.4115 5.05459 26.459 5.05459V3.93079C25.074 3.93079 23.261 4.91852 21.4278 6.63195C19.5946 4.9286 17.7816 3.95094 16.3966 3.95094V5.07475C17.4391 5.07475 18.9852 5.90626 20.627 7.42314C19.922 8.16395 19.2169 9.00554 18.5471 9.93784C17.4089 10.0588 16.3311 10.2452 15.344 10.4922C15.2282 9.98824 15.1426 9.49941 15.0822 9.03074C14.8455 7.10566 15.1376 5.60893 15.8174 5.21081C15.9685 5.1201 16.1649 5.07979 16.3966 5.07979V3.95598C15.9736 3.95598 15.5908 4.04669 15.2584 4.23819C13.8432 5.05459 13.526 7.59952 14.2562 10.7946C11.1237 11.7621 9.08401 13.3093 9.08401 14.942C9.08401 16.5799 11.1338 18.132 14.2764 19.0946C13.5511 22.2997 13.8735 24.8496 15.2937 25.666C15.621 25.8575 16.0038 25.9483 16.4268 25.9483C17.8118 25.9483 19.6248 24.9605 21.458 23.2471C23.2912 24.9504 25.1042 25.9281 26.4892 25.9281C26.9123 25.9281 27.295 25.8374 27.6274 25.6459C29.0426 24.8295 29.3599 22.2846 28.6296 19.0895C31.7521 18.127 33.7917 16.5748 33.7917 14.942ZM27.2346 11.5807C27.0482 12.2308 26.8166 12.9011 26.5547 13.5713C26.3482 13.1681 26.1316 12.765 25.8949 12.3618C25.6633 11.9587 25.4165 11.5656 25.1697 11.1826C25.8849 11.2884 26.5748 11.4194 27.2346 11.5807ZM24.928 16.9478C24.5352 17.6281 24.1323 18.2731 23.7143 18.8728C22.9639 18.9383 22.2034 18.9736 21.4379 18.9736C20.6774 18.9736 19.9169 18.9383 19.1716 18.8779C18.7536 18.2782 18.3456 17.6382 17.9528 16.9629C17.5701 16.3027 17.2226 15.6324 16.9053 14.9572C17.2175 14.2819 17.5701 13.6066 17.9478 12.9464C18.3406 12.2661 18.7435 11.621 19.1615 11.0213C19.9119 10.9558 20.6724 10.9205 21.4379 10.9205C22.1983 10.9205 22.9588 10.9558 23.7042 11.0163C24.1222 11.616 24.5301 12.256 24.9229 12.9313C25.3057 13.5915 25.6532 14.2617 25.9705 14.937C25.6532 15.6123 25.3057 16.2876 24.928 16.9478ZM26.5547 16.2926C26.8266 16.9679 27.0583 17.6432 27.2497 18.2983C26.5899 18.4596 25.8949 18.5957 25.1748 18.7015C25.4215 18.3135 25.6683 17.9153 25.9 17.5071C26.1316 17.104 26.3482 16.6958 26.5547 16.2926ZM21.448 21.6697C20.9796 21.186 20.5112 20.6467 20.0479 20.0571C20.5011 20.0773 20.9645 20.0924 21.4328 20.0924C21.9062 20.0924 22.3746 20.0823 22.8329 20.0571C22.3797 20.6467 21.9113 21.186 21.448 21.6697ZM17.701 18.7015C16.9859 18.5957 16.2959 18.4646 15.6361 18.3034C15.8225 17.6533 16.0542 16.983 16.316 16.3128C16.5225 16.7159 16.7391 17.1191 16.9758 17.5223C17.2125 17.9254 17.4542 18.3185 17.701 18.7015ZM21.4228 8.21434C21.8911 8.69813 22.3595 9.23735 22.8228 9.82697C22.3696 9.80682 21.9062 9.7917 21.4379 9.7917C20.9645 9.7917 20.4961 9.80178 20.0378 9.82697C20.4911 9.23735 20.9594 8.69813 21.4228 8.21434ZM17.696 11.1826C17.4492 11.5706 17.2024 11.9688 16.9707 12.3769C16.7391 12.7801 16.5225 13.1833 16.316 13.5864C16.0441 12.9111 15.8124 12.2358 15.621 11.5807C16.2808 11.4245 16.9758 11.2884 17.696 11.1826ZM13.1382 17.492C11.3554 16.7311 10.2021 15.7332 10.2021 14.942C10.2021 14.1508 11.3554 13.148 13.1382 12.3921C13.5713 12.2056 14.0447 12.0393 14.5332 11.8831C14.8203 12.8708 15.198 13.8989 15.6664 14.9521C15.203 16.0003 14.8304 17.0233 14.5483 18.006C14.0497 17.8498 13.5763 17.6785 13.1382 17.492ZM15.8477 24.6934C15.1627 24.3003 14.8656 22.8036 15.0973 20.8785C15.1527 20.4048 15.2433 19.9059 15.3541 19.3969C16.3412 19.6388 17.419 19.8253 18.5521 19.9462C19.232 20.8785 19.9371 21.7252 20.6472 22.466C19.0054 23.9929 17.4643 24.8295 16.4168 24.8295C16.1901 24.8245 15.9988 24.7791 15.8477 24.6934ZM27.7936 20.8533C28.0303 22.7784 27.7382 24.2752 27.0583 24.6733C26.9072 24.764 26.7108 24.8043 26.4791 24.8043C25.4366 24.8043 23.8905 23.9728 22.2487 22.4559C22.9538 21.7151 23.6589 20.8735 24.3287 19.9412C25.4669 19.8203 26.5446 19.6338 27.5317 19.3869C27.6475 19.8958 27.7382 20.3847 27.7936 20.8533ZM29.7325 17.492C29.2994 17.6785 28.826 17.8448 28.3375 18.001C28.0504 17.0133 27.6727 15.9852 27.2044 14.932C27.6677 13.8837 28.0404 12.8607 28.3224 11.878C28.821 12.0343 29.2944 12.2056 29.7376 12.3921C31.5204 13.153 32.6737 14.1508 32.6737 14.942C32.6687 15.7332 31.5154 16.7361 29.7325 17.492Z" fill="#61DAFB"/>
<path d="M21.4328 17.2451C22.704 17.2451 23.7344 16.214 23.7344 14.942C23.7344 13.6701 22.704 12.639 21.4328 12.639C20.1617 12.639 19.1313 13.6701 19.1313 14.942C19.1313 16.214 20.1617 17.2451 21.4328 17.2451Z" fill="#61DAFB"/>
</svg>
