<svg width="89" height="30" viewBox="0 0 89 30" fill="none" xmlns="http://www.w3.org/2000/svg">
<path d="M15.5823 7.89798L15.5735 29.9384L8.87646 23.4741L8.95588 1.95251L15.5823 7.89798Z" fill="#EF3075"/>
<path d="M37.6147 6.0686L15.6177 7.93316L8.95589 1.95251L30.5824 0L37.6147 6.0686Z" fill="#FFB30B"/>
<path d="M37.5 28.1794L15.6706 29.9736C15.6 29.9824 15.5294 29.9296 15.5294 29.8505V29.8417V7.97712C15.5294 7.90676 15.5824 7.85399 15.6529 7.8452L37.5353 6.051C37.6059 6.04221 37.6765 6.09498 37.6765 6.17413V6.18293L37.6235 28.0563C37.6235 28.1178 37.5706 28.1706 37.5 28.1794Z" fill="#1C2B41"/>
<path d="M35.5941 27.3087L17.5853 28.7511C17.0206 28.7951 16.5265 28.3817 16.4824 27.8188C16.4824 27.7924 16.4824 27.7573 16.4824 27.7309L16.5706 9.657C16.5706 9.12929 16.9853 8.68954 17.5147 8.64556L35.5235 7.20317C36.0882 7.1592 36.5824 7.57257 36.6265 8.13545C36.6265 8.16184 36.6265 8.19702 36.6265 8.2234L36.5294 26.2973C36.5294 26.825 36.1235 27.2647 35.5941 27.3087Z" fill="white"/>
<path d="M26.0823 25.9455C24.9794 25.9543 23.8853 25.7959 22.8353 25.4881C21.8206 25.1891 20.9912 24.7757 20.3559 24.2656C20.0382 24.0281 19.8794 23.7115 19.8794 23.2806C19.8706 23.0079 19.9676 22.7441 20.1353 22.533C20.2676 22.3483 20.4794 22.2339 20.7088 22.2251C20.9559 22.2251 21.247 22.3219 21.5735 22.5242C22.2 22.9815 22.897 23.3245 23.6294 23.5532C24.4059 23.7731 25.2088 23.8786 26.0118 23.8698C27.1323 23.8698 28.0059 23.6675 28.6059 23.2806C29.2235 22.876 29.5412 22.2779 29.5412 21.504C29.5412 20.8883 29.2412 20.4134 28.6588 20.0792C28.1029 19.7713 27.1676 19.4635 25.8794 19.1821C24.5647 18.9006 23.4882 18.5664 22.6765 18.197C21.8735 17.8364 21.2559 17.3615 20.85 16.7986C20.4441 16.2357 20.2412 15.5145 20.2412 14.6438C20.2323 13.7731 20.497 12.92 21.0088 12.2164C21.5206 11.504 22.2441 10.9411 23.1618 10.5365C24.0794 10.1319 25.1294 9.92964 26.2853 9.92964C28.3941 9.92964 30.1412 10.4925 31.4647 11.6095C31.6235 11.7326 31.7559 11.8821 31.8529 12.058C31.9323 12.2252 31.9676 12.4099 31.9588 12.5945C31.9676 12.8672 31.8706 13.131 31.7029 13.3421C31.5706 13.5268 31.3588 13.6412 31.1294 13.65C30.9971 13.65 30.8735 13.6324 30.75 13.5884C30.5823 13.5268 30.4235 13.4477 30.2647 13.3509C29.7088 12.9376 29.0912 12.5945 28.4471 12.3395C27.8559 12.1196 27.1235 12.0053 26.2676 12.0053C25.2265 12.0053 24.3794 12.2252 23.7706 12.6473C23.1441 13.0783 22.8265 13.6939 22.8265 14.4679C22.8088 15.0923 23.1353 15.6728 23.6735 15.9894C24.2118 16.3237 25.1294 16.6403 26.4 16.9305C27.7235 17.2296 28.8176 17.5638 29.6382 17.9244C30.45 18.285 31.0853 18.7423 31.5088 19.2964C31.9323 19.8417 32.1529 20.5365 32.1529 21.3632C32.1706 22.2252 31.8971 23.0607 31.3941 23.7555C30.8912 24.4503 30.1676 24.9956 29.2588 25.3826C28.35 25.7432 27.2823 25.9455 26.0823 25.9455Z" fill="#1C2B41"/>
<path d="M47.3382 23.1222C46.5353 23.1222 45.7412 23.0167 44.9735 22.788C44.2412 22.5682 43.6323 22.2691 43.1735 21.8997C42.7853 21.5919 42.7147 21.0378 43.0147 20.642C43.1118 20.5101 43.2618 20.4222 43.4294 20.4222C43.65 20.4398 43.8706 20.5101 44.0559 20.642C44.5059 20.9762 45.0176 21.2225 45.5559 21.3896C46.1206 21.5479 46.7029 21.6271 47.2853 21.6183C48.0971 21.6183 48.7323 21.4688 49.1735 21.1873C49.6235 20.8971 49.8529 20.4573 49.8529 19.8945C49.8529 19.4459 49.6323 19.1029 49.2088 18.8654C48.8029 18.6368 48.1235 18.4169 47.1882 18.2146C46.2353 18.0123 45.45 17.766 44.8588 17.5022C44.2765 17.2383 43.8265 16.8953 43.5353 16.482C43.2441 16.0774 43.0941 15.5497 43.0941 14.9164C43.0853 14.2832 43.2794 13.6675 43.65 13.1486C44.0471 12.6033 44.5941 12.1812 45.2118 11.9261C45.9265 11.6271 46.7029 11.4688 47.4794 11.4864C49.0147 11.4864 50.2853 11.8997 51.247 12.7089C51.3618 12.7968 51.4588 12.9112 51.5294 13.0343C51.5912 13.1574 51.6176 13.2894 51.6088 13.4301C51.6176 13.6236 51.547 13.8171 51.4235 13.9754C51.3265 14.1073 51.1765 14.1953 51.0088 14.1953C50.9118 14.1953 50.8235 14.1777 50.7353 14.1513C50.6118 14.1073 50.4971 14.0457 50.3823 13.9842C49.9765 13.6851 49.5353 13.4301 49.0588 13.2454C48.5471 13.0695 48.0176 12.9903 47.4794 12.9991C46.7206 12.9991 46.1118 13.1574 45.6618 13.4653C45.2206 13.7555 44.9559 14.2568 44.9735 14.7845C44.9559 15.2331 45.1941 15.664 45.5912 15.8927C45.9794 16.139 46.65 16.3676 47.5676 16.5787C48.5294 16.7986 49.3235 17.0361 49.9235 17.2999C50.5147 17.5638 50.9735 17.898 51.2823 18.2938C51.5912 18.6895 51.75 19.1909 51.75 19.7889C51.7588 20.4134 51.5647 21.0202 51.2029 21.5303C50.8412 22.0317 50.3118 22.4274 49.65 22.7089C48.9176 22.9903 48.1323 23.1398 47.3382 23.1222Z" fill="#1C2B41"/>
<path d="M57.0176 23.1047C56.2147 23.1047 55.5 22.9376 54.9 22.6121C54.3 22.2867 53.8147 21.7942 53.4971 21.1961C53.1706 20.5805 53.0029 19.8505 53.0029 19.0325C53.0029 18.2146 53.1706 17.4846 53.4971 16.8778C53.8147 16.2797 54.3 15.7872 54.9 15.4617C55.5 15.1363 56.2147 14.9692 57.0176 14.9692C57.8206 14.9692 58.5265 15.1363 59.1353 15.4617C59.7265 15.7872 60.2118 16.2797 60.5294 16.869C60.8559 17.4846 61.0235 18.2058 61.0235 19.0238C61.0235 19.8417 60.8559 20.5717 60.5294 21.1873C60.2206 21.7854 59.7353 22.2867 59.1353 22.6033C58.5265 22.9376 57.8118 23.1047 57.0176 23.1047ZM57.0176 16.35C56.3382 16.35 55.8 16.5875 55.4294 17.0449C55.0588 17.5022 54.8735 18.1618 54.8735 19.0238C54.8735 19.8945 55.0588 20.5629 55.4206 21.0114C55.7824 21.4688 56.3206 21.6975 57 21.6975C57.6882 21.6975 58.2265 21.4688 58.5971 21.0114C58.9588 20.5629 59.1441 19.8945 59.1441 19.0238C59.1441 18.1706 58.9588 17.5022 58.5971 17.0449C58.2265 16.5875 57.6971 16.35 57.0176 16.35Z" fill="#1C2B41"/>
<path d="M71.9029 23.0607C71.85 23.0607 71.8059 23.0607 71.7529 23.0607L71.3118 23.0255C69.5118 22.8936 68.6382 21.9613 68.6382 20.1671V16.5172H65.0824V22.1812C65.0824 22.4714 64.9941 22.6825 64.8265 22.832C64.6412 22.9903 64.3941 23.0695 64.1559 23.0519C63.9088 23.0607 63.6706 22.9815 63.4765 22.8232C63.3 22.6737 63.2118 22.4626 63.2118 22.1724V16.5084H62.3029C61.7382 16.5084 61.4735 16.2885 61.4735 15.8311C61.4735 15.3738 61.7382 15.1539 62.3029 15.1539H63.2118V14.9516C63.2118 13.9578 63.4765 13.1662 63.9971 12.6033C64.5177 12.0405 65.2677 11.715 66.2294 11.6447L66.653 11.6095C66.7412 11.6007 66.8206 11.6007 66.9 11.6007C67.1824 11.6007 67.3941 11.6447 67.5177 11.7326C67.6765 11.8382 67.7471 12.0053 67.7471 12.2427C67.7471 12.6649 67.5177 12.8936 67.0235 12.9376L66.6 12.9727C66.0794 13.0079 65.6824 13.175 65.4441 13.4653C65.2059 13.7555 65.0824 14.1689 65.0824 14.6966V15.1627H68.6382V13.5708C68.6294 13.3333 68.7177 13.0959 68.8853 12.9288C69.0794 12.7617 69.3265 12.6737 69.5824 12.6913C69.8294 12.6737 70.0765 12.7617 70.2618 12.9288C70.4382 13.0959 70.5265 13.3245 70.5088 13.5708V15.1627H72C72.2735 15.1627 72.4853 15.2243 72.6265 15.3386C72.9 15.6201 72.9 16.0686 72.6265 16.35C72.4853 16.4644 72.2735 16.5259 72 16.5259H70.5177V20.3166C70.5177 21.1697 70.9235 21.6359 71.7177 21.6975L72.1588 21.7326C72.6618 21.759 72.9 21.9701 72.9 22.3835C72.9088 22.5946 72.8029 22.7968 72.6177 22.9024C72.4412 23.0079 72.2029 23.0607 71.9029 23.0607Z" fill="#1C2B41"/>
<path d="M75.0618 23.0695C74.8147 23.0783 74.5765 22.9991 74.3912 22.8408C74.2147 22.6913 74.1353 22.4714 74.1353 22.1812V15.8575C74.1353 15.5761 74.2235 15.365 74.3912 15.2243C74.5765 15.0748 74.8059 14.9868 75.0441 15.0044C75.2735 14.9956 75.503 15.066 75.6706 15.2155C75.8294 15.3562 75.9 15.5585 75.9 15.8311V16.482L76.0677 16.5171C76.253 16.0774 76.5618 15.6992 76.9588 15.4441C77.3559 15.1891 77.8147 15.0396 78.2912 15.0132L78.5206 14.9956C78.5559 14.9956 78.5912 14.9956 78.6265 14.9956C78.8118 14.9868 78.9883 15.0484 79.1294 15.1627C79.2706 15.2858 79.3412 15.4705 79.3412 15.7344C79.3412 16.007 79.2794 16.2005 79.1559 16.3237C79.0324 16.4468 78.7853 16.5347 78.4412 16.5787L77.9471 16.6315C77.2765 16.7018 76.7824 16.9305 76.4647 17.3175C76.1559 17.7045 75.9971 18.1882 75.9971 18.7599V22.19C75.9971 22.4802 75.9088 22.7001 75.7324 22.8496C75.5559 22.9991 75.3088 23.0783 75.0618 23.0695Z" fill="#1C2B41"/>
</svg>
