<svg width="105" height="30" viewBox="0 0 105 30" fill="none" xmlns="http://www.w3.org/2000/svg">
<g clip-path="url(#clip0_2_51)">
<path d="M22.6486 5.747C22.6283 5.59903 22.4991 5.51693 22.3918 5.50799C22.2853 5.49906 20.1993 5.46736 20.1993 5.46736C20.1993 5.46736 18.4547 3.77317 18.2823 3.60083C18.11 3.42849 17.7734 3.48051 17.6425 3.51953C17.6409 3.52035 17.3149 3.62115 16.7662 3.79106C16.6743 3.49352 16.5394 3.12769 16.3467 2.76024C15.7256 1.57497 14.8159 0.948185 13.7168 0.946564C13.7152 0.946564 13.7144 0.946564 13.7128 0.946564C13.6363 0.946564 13.5607 0.95388 13.4843 0.96038C13.4518 0.921359 13.4193 0.883154 13.3852 0.845754C12.9063 0.333601 12.2926 0.0840266 11.5568 0.105976C10.1374 0.146623 8.72374 1.17175 7.57748 2.99275C6.77104 4.27395 6.15725 5.8836 5.98329 7.12983C4.35332 7.63466 3.21357 7.98746 3.18837 7.99561C2.36567 8.25411 2.33966 8.27931 2.23235 9.05489C2.15268 9.64099 0 26.2869 0 26.2869L18.0401 29.407L25.859 27.4632C25.859 27.4632 22.669 5.89498 22.6486 5.747ZM15.863 4.07071C15.4476 4.19916 14.9752 4.34549 14.4631 4.50401C14.4525 3.78537 14.3672 2.78545 14.0322 1.92128C15.1094 2.12533 15.6394 3.34394 15.863 4.07071ZM13.5193 4.79667C12.5738 5.08931 11.5422 5.4088 10.5073 5.72913C10.7983 4.61457 11.3504 3.5049 12.0284 2.77731C12.2804 2.50661 12.6332 2.205 13.051 2.03265C13.4437 2.8521 13.529 4.01218 13.5193 4.79667ZM11.5853 1.05062C11.9186 1.0433 12.199 1.11647 12.4389 1.27418C12.0552 1.47335 11.6844 1.75951 11.3365 2.13265C10.4349 3.10006 9.74395 4.60156 9.46836 6.05023C8.60907 6.31605 7.76849 6.57704 6.99456 6.81605C7.48318 4.53572 9.39437 1.11403 11.5853 1.05062Z" fill="#95BF47"/>
<path d="M22.3926 5.50883C22.2861 5.4999 20.2001 5.4682 20.2001 5.4682C20.2001 5.4682 18.4555 3.77401 18.2831 3.60167C18.2189 3.53744 18.1319 3.50411 18.0409 3.4903L18.0417 29.4062L25.8598 27.4633C25.8598 27.4633 22.6698 5.89582 22.6495 5.74784C22.6291 5.59987 22.4991 5.51777 22.3926 5.50883Z" fill="#5E8E3E"/>
<path d="M13.7071 9.52886L12.799 12.9261C12.799 12.9261 11.7861 12.4652 10.5854 12.5408C8.8245 12.6522 8.8058 13.7627 8.82372 14.0415C8.91964 15.5609 12.9169 15.8926 13.1413 19.4517C13.3177 22.2514 11.656 24.1667 9.26189 24.3179C6.38811 24.4992 4.80612 22.8042 4.80612 22.8042L5.41503 20.2142C5.41503 20.2142 7.00756 21.4157 8.28226 21.3353C9.11474 21.2824 9.41226 20.6052 9.38217 20.1264C9.257 18.1444 6.00195 18.2615 5.7963 15.0048C5.62312 12.2644 7.42302 9.4874 11.3942 9.23701C12.9242 9.13865 13.7071 9.52886 13.7071 9.52886Z" fill="white"/>
<path d="M36.1552 16.6427C35.2562 16.1549 34.7942 15.7437 34.7942 15.1785C34.7942 14.4592 35.436 13.9972 36.4383 13.9972C37.605 13.9972 38.6467 14.485 38.6467 14.485L39.4684 11.9677C39.4684 11.9677 38.7128 11.3767 36.489 11.3767C33.3944 11.3767 31.2496 13.1489 31.2496 15.6405C31.2496 17.0531 32.2511 18.132 33.5871 18.902C34.666 19.518 35.0514 19.9551 35.0514 20.5969C35.0514 21.2646 34.512 21.804 33.5105 21.804C32.018 21.804 30.6086 21.0331 30.6086 21.0331L29.7354 23.5504C29.7354 23.5504 31.0375 24.4237 33.2283 24.4237C36.4133 24.4237 38.6992 22.857 38.6992 20.0317C38.6983 18.5174 37.5429 17.4385 36.1552 16.6427Z" fill="black"/>
<path d="M48.8435 11.3517C47.2768 11.3517 46.0439 12.0967 45.0941 13.2264L45.0424 13.2005L46.4035 6.08643H42.8589L39.4176 24.1931H42.9621L44.1434 18.0038C44.6054 15.6663 45.8125 14.2286 46.943 14.2286C47.7388 14.2286 48.0476 14.768 48.0476 15.5389C48.0476 16.0267 47.996 16.6177 47.8936 17.1056L46.5583 24.1939H50.1031L51.4896 16.8741C51.6439 16.1033 51.7469 15.1793 51.7469 14.5624C51.7455 12.5587 50.6925 11.3517 48.8435 11.3517Z" fill="black"/>
<path d="M59.7587 11.3517C55.4947 11.3517 52.6704 15.2043 52.6704 19.4931C52.6704 22.241 54.3651 24.4495 57.5503 24.4495C61.7366 24.4495 64.5618 20.7001 64.5618 16.3081C64.5618 13.7658 63.0718 11.3517 59.7587 11.3517ZM58.0123 21.7282C56.805 21.7282 56.2912 20.7009 56.2912 19.4165C56.2912 17.3878 57.3447 14.0746 59.2708 14.0746C60.5293 14.0746 60.9396 15.1535 60.9396 16.2065C60.9396 18.3892 59.8876 21.7282 58.0123 21.7282Z" fill="black"/>
<path d="M73.6279 11.3517C71.2354 11.3517 69.8777 13.4578 69.8777 13.4578H69.8269L70.0325 11.5573H66.8991C66.7453 12.8417 66.4621 14.793 66.1803 16.2573L63.7145 29.2269H67.2591L68.2344 23.9875H68.312C68.312 23.9875 69.0392 24.4495 70.3925 24.4495C74.5529 24.4495 77.2751 20.1865 77.2751 15.8711C77.2751 13.4836 76.2217 11.3517 73.6279 11.3517ZM70.2377 21.7789C69.3176 21.7789 68.773 21.2653 68.773 21.2653L69.364 17.9522C69.7752 15.7437 70.9307 14.2794 72.1638 14.2794C73.2426 14.2794 73.5762 15.2809 73.5762 16.2315C73.5762 18.5174 72.2151 21.7789 70.2377 21.7789Z" fill="black"/>
<path d="M82.3347 6.26625C81.2051 6.26625 80.306 7.1653 80.306 8.32073C80.306 9.37381 80.9736 10.093 81.9752 10.093H82.0265C83.1312 10.093 84.0811 9.34798 84.107 8.03855C84.107 7.01126 83.4135 6.26625 82.3347 6.26625Z" fill="black"/>
<path d="M77.3782 24.1931H80.9218L83.3368 11.6347H79.7663L77.3782 24.1931Z" fill="black"/>
<path d="M92.3517 11.6089H89.8859L90.0138 11.0179C90.2194 9.8108 90.9388 8.73194 92.1202 8.73194C92.7507 8.73194 93.2498 8.91176 93.2498 8.91176L93.9433 6.13805C93.9433 6.13805 93.3269 5.83003 92.0166 5.83003C90.7581 5.83003 89.5005 6.18962 88.5497 7.01126C87.3424 8.03855 86.7774 9.52779 86.4951 11.0179L86.393 11.6089H84.7487L84.2349 14.2802H85.8793L84.0044 24.1939H87.549L89.4239 14.2802H91.8638L92.3517 11.6089Z" fill="black"/>
<path d="M100.878 11.6347C100.878 11.6347 98.6624 17.2168 97.6676 20.2639H97.6158C97.5484 19.2826 96.7426 11.6347 96.7426 11.6347H93.0183L95.151 23.1658C95.2028 23.4223 95.1769 23.5771 95.0739 23.7569C94.6622 24.5527 93.9692 25.3236 93.1472 25.8888C92.4796 26.3766 91.7349 26.6846 91.1444 26.8902L92.1202 29.8953C92.8395 29.7414 94.3286 29.1503 95.5871 27.9691C97.2056 26.454 98.6946 24.1165 100.235 20.9315L104.576 11.6339H100.878V11.6347Z" fill="black"/>
</g>
<defs>
<clipPath id="clip0_2_51">
<rect width="105" height="29.7907" fill="white" transform="translate(0 0.104645)"/>
</clipPath>
</defs>
</svg>
