<svg width="150" height="18" viewBox="0 0 150 18" fill="none" xmlns="http://www.w3.org/2000/svg">
<path d="M4.86719 4.33203V7.13281H15.332V10.5664H4.86719V17H0.519531V0.898438H15.9062V4.33203H4.86719ZM19.6211 17V0.898438H23.9688V17H19.6211ZM39.3906 0.488281C40.9688 0.488281 42.4336 0.625 43.7852 0.898438C45.1445 1.16406 46.3906 1.50781 47.5234 1.92969V5.86719C47.0781 5.61719 46.5742 5.375 46.0117 5.14062C45.457 4.90625 44.8516 4.69922 44.1953 4.51953C43.5391 4.33984 42.8359 4.19531 42.0859 4.08594C41.3359 3.97656 40.5469 3.92188 39.7188 3.92188C38.6875 3.92188 37.7891 3.99609 37.0234 4.14453C36.2578 4.29297 35.6016 4.49219 35.0547 4.74219C34.5078 4.99219 34.0586 5.28516 33.707 5.62109C33.3555 5.94922 33.0781 6.30078 32.875 6.67578C32.6719 7.05078 32.5312 7.43359 32.4531 7.82422C32.375 8.21484 32.3359 8.59375 32.3359 8.96094C32.3359 9.28125 32.3672 9.62891 32.4297 10.0039C32.5 10.3789 32.625 10.7539 32.8047 11.1289C32.9922 11.5039 33.25 11.8633 33.5781 12.207C33.9062 12.5508 34.332 12.8555 34.8555 13.1211C35.3867 13.3867 36.0234 13.6016 36.7656 13.7656C37.5078 13.9219 38.3906 14 39.4141 14C39.9297 14 40.3789 13.9844 40.7617 13.9531C41.1445 13.9219 41.4922 13.8789 41.8047 13.8242C42.125 13.7695 42.4219 13.7031 42.6953 13.625C42.9766 13.5469 43.2656 13.4648 43.5625 13.3789V11.4336H38.6875V7.90625H47.9102V16.1328C47.332 16.3281 46.6836 16.5078 45.9648 16.6719C45.2539 16.8281 44.5156 16.9609 43.75 17.0703C42.9922 17.1875 42.2305 17.2773 41.4648 17.3398C40.6992 17.4023 39.9766 17.4336 39.2969 17.4336C38.2422 17.4336 37.2305 17.3633 36.2617 17.2227C35.293 17.082 34.3867 16.8672 33.543 16.5781C32.707 16.2812 31.9414 15.9062 31.2461 15.4531C30.5586 15 29.9688 14.4609 29.4766 13.8359C28.9922 13.2109 28.6133 12.4961 28.3398 11.6914C28.0742 10.8789 27.9414 9.96875 27.9414 8.96094C27.9414 7.96094 28.082 7.05469 28.3633 6.24219C28.6445 5.42969 29.0352 4.71094 29.5352 4.08594C30.043 3.46094 30.6484 2.92188 31.3516 2.46875C32.0625 2.01562 32.8398 1.64453 33.6836 1.35547C34.5352 1.05859 35.4414 0.839844 36.4023 0.699219C37.3711 0.558594 38.3672 0.488281 39.3906 0.488281ZM73.0703 17V5.69141L67.0938 17H62.9219L56.9453 5.69141V17H52.5977V0.898438H58.5039L65.0078 13.0859L71.5117 0.898438H77.3945V17H73.0703ZM95.3711 13.9531H86.3945L84.8828 17H80.0312L88.457 0.898438H93.3086L101.734 17H96.8828L95.3711 13.9531ZM87.9531 10.8125H93.8359L90.9062 4.88281L87.9531 10.8125ZM112.457 4.40234V17H108.109V4.40234H101.277V0.898438H119.301V4.40234H112.457ZM122.184 17V0.898438H126.531V17H122.184ZM149.324 15.8984C148.762 16.1328 148.195 16.3438 147.625 16.5312C147.055 16.7188 146.465 16.8789 145.855 17.0117C145.246 17.1523 144.602 17.2578 143.922 17.3281C143.25 17.3984 142.527 17.4336 141.754 17.4336C140.113 17.4336 138.602 17.2578 137.219 16.9062C135.844 16.5547 134.656 16.0273 133.656 15.3242C132.664 14.6133 131.891 13.7305 131.336 12.6758C130.781 11.6133 130.504 10.375 130.504 8.96094C130.504 7.54688 130.781 6.3125 131.336 5.25781C131.891 4.19531 132.664 3.3125 133.656 2.60938C134.656 1.89844 135.844 1.36719 137.219 1.01562C138.602 0.664062 140.113 0.488281 141.754 0.488281C142.527 0.488281 143.25 0.523438 143.922 0.59375C144.602 0.664062 145.246 0.769531 145.855 0.910156C146.465 1.04297 147.055 1.20312 147.625 1.39062C148.195 1.57812 148.762 1.78906 149.324 2.02344V5.9375C148.879 5.69531 148.41 5.45703 147.918 5.22266C147.426 4.98047 146.883 4.76562 146.289 4.57812C145.695 4.38281 145.043 4.22656 144.332 4.10938C143.621 3.98437 142.82 3.92188 141.93 3.92188C140.562 3.92188 139.426 4.0625 138.52 4.34375C137.621 4.625 136.902 5 136.363 5.46875C135.824 5.9375 135.445 6.47656 135.227 7.08594C135.008 7.6875 134.898 8.3125 134.898 8.96094C134.898 9.39062 134.945 9.81641 135.039 10.2383C135.133 10.6523 135.289 11.0469 135.508 11.4219C135.727 11.7891 136.012 12.1289 136.363 12.4414C136.715 12.7539 137.152 13.0234 137.676 13.25C138.199 13.4766 138.809 13.6562 139.504 13.7891C140.207 13.9141 141.016 13.9766 141.93 13.9766C142.82 13.9766 143.621 13.9219 144.332 13.8125C145.043 13.6953 145.695 13.543 146.289 13.3555C146.883 13.168 147.426 12.957 147.918 12.7227C148.41 12.4805 148.879 12.2344 149.324 11.9844V15.8984Z" fill="#636772"/>
</svg>
