<svg width="72" height="34" viewBox="0 0 72 34" fill="none" xmlns="http://www.w3.org/2000/svg">
<g clip-path="url(#clip0_2_49)">
<path d="M43.2048 14.853H41.4101C41.3732 14.7061 41.3457 14.5357 41.3274 14.3423C41.2909 13.9659 41.2909 13.5869 41.3274 13.2105C41.3457 13.0175 41.3732 12.8473 41.4101 12.6996H45.8827V26.8624C45.6588 26.9014 45.4331 26.9288 45.2064 26.9448C44.9812 26.9621 44.7554 26.9712 44.5295 26.9721C44.3132 26.9708 44.097 26.9616 43.8813 26.9448C43.6546 26.9287 43.429 26.9011 43.2052 26.862V14.8524V14.8527L43.2048 14.853ZM58.775 18.4147C58.775 17.8991 58.7059 17.4069 58.5683 16.9372C58.43 16.4682 58.227 16.0588 57.9609 15.7089C57.6935 15.3596 57.3532 15.0786 56.939 14.8671C56.525 14.6554 56.0326 14.5494 55.462 14.5494C54.3394 14.5494 53.4789 14.8904 52.8808 15.5711C52.2827 16.2519 51.9193 17.1997 51.7903 18.4147H58.7752H58.775ZM51.7628 20.4574C51.7997 22.0034 52.2 23.1356 52.9638 23.853C53.7273 24.5707 54.8548 24.9301 56.3456 24.9301C57.652 24.9301 58.8944 24.6997 60.0723 24.2396C60.2192 24.5156 60.3387 24.8516 60.4309 25.2473C60.5213 25.6326 60.5767 26.0252 60.5965 26.4205C59.9895 26.6788 59.3218 26.8712 58.5953 27.0004C57.8678 27.1288 57.0627 27.1936 56.1799 27.1936C54.8911 27.1936 53.7866 27.0136 52.8669 26.6551C51.9464 26.2958 51.1872 25.7896 50.5891 25.1366C49.991 24.4834 49.5537 23.7103 49.2777 22.8175C49.0018 21.9251 48.8634 20.9449 48.8634 19.8774C48.8634 18.8284 48.9967 17.8482 49.2637 16.9369C49.5301 16.0264 49.9405 15.2349 50.492 14.5631C51.0444 13.891 51.7391 13.3575 52.5766 12.9618C53.4136 12.5661 54.4028 12.368 55.5444 12.368C56.5197 12.368 57.3755 12.5338 58.1119 12.865C58.8478 13.1962 59.4645 13.6519 59.9616 14.2316C60.4584 14.8115 60.8357 15.5017 61.0934 16.3019C61.3509 17.1028 61.4802 17.9723 61.4802 18.9112C61.4802 19.1689 61.4704 19.4402 61.4521 19.7253C61.437 19.9694 61.4187 20.2133 61.3971 20.4569H51.7622L51.7625 20.4573L51.7628 20.4574ZM64.491 12.6996C64.6831 12.6647 64.8765 12.6371 65.0707 12.6169C65.2543 12.5989 65.448 12.5896 65.6505 12.5896C65.8529 12.5896 66.0551 12.5989 66.2579 12.6169C66.4602 12.6356 66.6443 12.6633 66.8101 12.6996C66.8648 12.9758 66.9201 13.3397 66.9751 13.7901C67.0303 14.2411 67.0583 14.6227 67.0583 14.9358C67.4447 14.3102 67.9555 13.7669 68.5902 13.3067C69.2253 12.8469 70.0396 12.6165 71.0333 12.6165C71.1805 12.6165 71.3323 12.6214 71.4888 12.6306C71.6227 12.6378 71.7566 12.6513 71.8891 12.6716C71.9257 12.8375 71.9539 13.0126 71.9721 13.1964C71.9902 13.3803 71.9994 13.5737 71.9994 13.776C71.9994 13.997 71.9857 14.2273 71.9582 14.466C71.9317 14.6968 71.8995 14.9269 71.8618 15.1561C71.7126 15.1194 71.5596 15.1008 71.406 15.1009H71.033C70.5362 15.1009 70.0622 15.17 69.6113 15.3079C69.16 15.4461 68.7554 15.69 68.3965 16.0394C68.038 16.3893 67.7524 16.868 67.5412 17.4753C67.3291 18.0827 67.2235 18.8649 67.2235 19.8218V26.862C66.9996 26.9009 66.7738 26.9287 66.547 26.9446C66.2989 26.9631 66.0732 26.972 65.8709 26.972C65.6452 26.9711 65.4195 26.962 65.1944 26.9446C64.9586 26.9275 64.7236 26.9 64.4902 26.8621V12.6997L64.491 12.6996ZM45.1152 5.13728C45.1152 5.46772 45.0556 5.79545 44.9391 6.10467C44.6298 6.22116 44.3019 6.28086 43.9714 6.28093H43.9674C43.6368 6.28097 43.309 6.22131 42.9997 6.10482C42.883 5.79553 42.8233 5.4677 42.8233 5.13714V5.13282C42.8233 4.79226 42.8858 4.4661 42.999 4.16514C43.3084 4.04848 43.6363 3.98882 43.9669 3.98903H43.9707C44.3114 3.98903 44.6374 4.05152 44.9384 4.16514C45.055 4.47443 45.1146 4.80227 45.1145 5.13282V5.13714H45.1149L45.1152 5.13728ZM48.4885 4.3712H45.8136L47.7049 2.47976C47.4075 2.06209 47.0424 1.69706 46.6246 1.39976L44.733 3.2912V0.616114C44.4815 0.573805 44.2269 0.552468 43.9718 0.552322H43.9669C43.7075 0.552322 43.4533 0.574498 43.2056 0.616114V3.2912L41.3136 1.39962C41.1052 1.54792 40.9097 1.71343 40.729 1.8944L40.7281 1.89527C40.5474 2.07611 40.382 2.27166 40.2337 2.47991L42.1258 4.3712H39.4502C39.4502 4.3712 39.3866 4.87376 39.3866 5.13354V5.13671C39.3866 5.39648 39.4086 5.65107 39.4504 5.8989H42.1259L40.2336 7.79005C40.5312 8.20767 40.8964 8.57277 41.314 8.87034L43.2058 6.97904V9.65427C43.4532 9.69575 43.7069 9.71763 43.9661 9.71792H43.9726C44.2273 9.71769 44.4816 9.6964 44.7329 9.65427V6.97904L46.6247 8.87077C46.8331 8.72233 47.0288 8.55684 47.2098 8.37599H47.2103C47.3909 8.19495 47.5562 7.99926 47.7045 7.79091L45.8132 5.89904H48.4887C48.5302 5.65136 48.552 5.39763 48.552 5.13843V5.13181C48.552 4.87693 48.5307 4.62277 48.4887 4.37149V4.3712H48.4885ZM0 26.4761L7.45402 14.8806H0.883296C0.828288 14.5494 0.800784 14.1816 0.800784 13.7766C0.800784 13.3902 0.82872 13.0309 0.883872 12.6994H11.5125L11.6508 13.059L4.14158 24.6815H11.1812C11.2363 25.0497 11.2641 25.4267 11.2641 25.8131C11.2641 26.1817 11.2365 26.5312 11.1813 26.8624H0.13824L0 26.4756V26.4761ZM21.5058 20.2088C21.2298 20.1723 20.88 20.1359 20.4568 20.0986C20.0334 20.0622 19.6746 20.0434 19.3805 20.0434C18.2392 20.0434 17.3696 20.2551 16.7718 20.6785C16.1732 21.1021 15.8747 21.746 15.8747 22.611C15.8747 23.1631 15.9755 23.5956 16.1781 23.9084C16.3803 24.2217 16.6336 24.4605 16.9373 24.6262C17.2411 24.7918 17.5766 24.8932 17.9446 24.9301C18.3125 24.9668 18.6624 24.9851 18.9936 24.9851C19.417 24.9851 19.854 24.962 20.305 24.916C20.7557 24.8703 21.156 24.8011 21.506 24.709V20.2088H21.5058ZM21.5058 17.5312C21.5058 16.4449 21.2298 15.6903 20.6778 15.267C20.1254 14.8436 19.3249 14.6319 18.2759 14.6319C17.6312 14.6319 17.0289 14.6829 16.4677 14.784C15.9124 14.8837 15.3637 15.0172 14.8247 15.1839C14.4747 14.5765 14.3005 13.85 14.3005 13.0028C14.9255 12.8007 15.6155 12.6443 16.3705 12.5338C17.1251 12.4233 17.852 12.368 18.5517 12.368C20.392 12.368 21.7907 12.787 22.7478 13.6244C23.7046 14.4624 24.1835 15.8012 24.1835 17.6414V26.5034C23.539 26.6506 22.757 26.8024 21.8369 26.9589C20.9065 27.116 19.9645 27.1945 19.021 27.1936C18.1192 27.1936 17.3045 27.1111 16.5779 26.9454C15.8507 26.7793 15.234 26.5131 14.728 26.1444C14.2214 25.7767 13.8309 25.3072 13.5544 24.7368C13.2785 24.1662 13.1404 23.4761 13.1404 22.6661C13.1404 21.875 13.3014 21.18 13.6236 20.5816C13.9401 19.9903 14.3889 19.4801 14.9351 19.0909C15.4872 18.6957 16.1221 18.4008 16.8399 18.2079C17.5579 18.0145 18.3122 17.9177 19.1036 17.9177C19.6926 17.9177 20.1757 17.9318 20.5531 17.9595C20.9301 17.9868 21.2478 18.0191 21.5055 18.056V17.5314L21.5058 17.5312ZM29.8981 24.5429C30.2467 24.6716 30.6075 24.7642 30.975 24.8191C31.343 24.8745 31.8211 24.902 32.4107 24.902C33.0731 24.902 33.6802 24.7964 34.2323 24.5848C34.7846 24.3735 35.2584 24.0465 35.6541 23.6046C36.0498 23.1631 36.3626 22.6066 36.5927 21.9342C36.8227 21.2628 36.938 20.4671 36.938 19.5464C36.938 18.0741 36.6661 16.9054 36.1236 16.0402C35.5802 15.1754 34.6922 14.7428 33.4595 14.7428C32.9995 14.7428 32.5574 14.8255 32.1348 14.9913C31.7108 15.1569 31.3338 15.4055 31.0025 15.7367C30.6713 16.0679 30.4044 16.4869 30.2021 16.9929C29.9991 17.4995 29.8983 18.1017 29.8983 18.8013V24.5433V24.543L29.8981 24.5429ZM27.165 12.6993C27.3522 12.6624 27.5409 12.6349 27.7309 12.6166C27.9283 12.5984 28.1264 12.5892 28.3247 12.5893C28.5081 12.5893 28.7012 12.5988 28.9041 12.6166C29.1063 12.6354 29.2995 12.6632 29.4839 12.6994C29.502 12.7369 29.5253 12.8514 29.553 13.0448C29.5803 13.2381 29.608 13.4451 29.6358 13.6657C29.6634 13.8867 29.6909 14.0988 29.7186 14.3007C29.7462 14.5035 29.76 14.6324 29.76 14.6875C29.9436 14.3933 30.1647 14.1078 30.4224 13.8317C30.6802 13.5555 30.9888 13.3071 31.3476 13.0865C31.7065 12.8655 32.1111 12.6908 32.5623 12.5618C33.013 12.433 33.5146 12.3681 34.0668 12.3681C34.8948 12.3681 35.6633 12.5063 36.3722 12.7825C37.0804 13.059 37.6874 13.4863 38.1938 14.0661C38.6997 14.646 39.0953 15.3823 39.3808 16.2747C39.666 17.168 39.8085 18.2216 39.8085 19.4361C39.8085 21.8653 39.1504 23.7661 37.8343 25.137C36.5181 26.5083 34.6552 27.1936 32.2442 27.1936C31.8391 27.1936 31.4253 27.166 31.0019 27.1108C30.5783 27.0554 30.2105 26.9816 29.8974 26.8901V33.3778C29.6642 33.4158 29.4295 33.4434 29.1938 33.4606C28.9452 33.4786 28.7195 33.488 28.517 33.488C28.2914 33.487 28.0658 33.4779 27.8408 33.4606C27.6141 33.4446 27.3884 33.4169 27.1646 33.3778V12.6994L27.165 12.6993Z" fill="#FF4A00"/>
</g>
<defs>
<clipPath id="clip0_2_49">
<rect width="72" height="32.976" fill="white" transform="translate(0 0.511993)"/>
</clipPath>
</defs>
</svg>
