<svg width="105" height="52" viewBox="0 0 105 52" fill="none" xmlns="http://www.w3.org/2000/svg">
<path d="M53.7192 24.5126C53.7192 24.3474 53.7794 24.2122 53.8848 24.107C53.9901 24.0018 54.1256 23.9417 54.2912 23.9417C54.4567 23.9417 54.5922 24.0018 54.6975 24.107C54.8029 24.2122 54.8631 24.3474 54.8631 24.5126V27.5625C54.8631 27.8179 54.9083 28.0582 55.0136 28.2836C55.119 28.5089 55.2394 28.7043 55.405 28.8845C55.5705 29.0498 55.7662 29.185 55.992 29.2902C56.2178 29.3953 56.4586 29.4404 56.7145 29.4404C56.9703 29.4404 57.2112 29.3953 57.4369 29.2902C57.6627 29.2 57.8584 29.0648 58.039 28.8845C58.2046 28.7193 58.34 28.5089 58.4454 28.2836C58.5508 28.0582 58.5959 27.8179 58.5959 27.5625V22.2441C58.5959 22.0788 58.6561 21.9436 58.7615 21.8384C58.8668 21.7333 59.0023 21.6732 59.1679 21.6732C59.3334 21.6732 59.4689 21.7333 59.5743 21.8384C59.6796 21.9436 59.7398 22.0788 59.7398 22.2441V27.5625C59.7398 27.9831 59.6646 28.3737 59.499 28.7343C59.3334 29.0949 59.1227 29.4254 58.8518 29.6808C58.5809 29.9512 58.2648 30.1615 57.9035 30.3268C57.5423 30.4921 57.151 30.5672 56.7295 30.5672C56.2178 30.5672 55.7512 30.447 55.3297 30.2216C54.9083 29.9963 54.5621 29.6958 54.2761 29.3202C54.0052 29.6958 53.659 29.9963 53.2526 30.2216C52.8311 30.447 52.3645 30.5672 51.8528 30.5672C51.4313 30.5672 51.04 30.4921 50.6788 30.3268C50.3175 30.1615 49.9864 29.9512 49.7305 29.6808C49.4596 29.4104 49.2489 29.0949 49.0983 28.7343C48.9478 28.3737 48.8726 27.9831 48.8726 27.5625V22.2441C48.8726 22.0788 48.9328 21.9436 49.0381 21.8384C49.1435 21.7333 49.279 21.6732 49.4445 21.6732C49.6101 21.6732 49.7456 21.7333 49.8509 21.8384C49.9563 21.9436 50.0165 22.0788 50.0165 22.2441V27.5625C50.0165 27.8179 50.0616 28.0582 50.167 28.2836C50.2573 28.5089 50.3928 28.7043 50.5584 28.8845C50.7239 29.0498 50.9196 29.185 51.1454 29.2902C51.3711 29.3953 51.612 29.4404 51.8678 29.4404C52.3645 29.4404 52.801 29.2601 53.1623 28.9146C53.5235 28.554 53.7192 28.1183 53.7342 27.5775V24.5126H53.7192Z" fill="url(#paint0_linear_2_72)"/>
<path d="M61.8019 26.6761C61.8621 27.0667 61.9976 27.4272 62.1932 27.7728C62.3889 28.1033 62.6297 28.4038 62.9157 28.6442C63.2017 28.8845 63.5328 29.0798 63.8941 29.2151C64.2553 29.3503 64.6467 29.4254 65.0531 29.4254C65.5046 29.4254 65.926 29.3503 66.3174 29.185C66.7087 29.0198 67.0549 28.7944 67.371 28.4939C67.4764 28.3888 67.6118 28.3287 67.7774 28.3287C67.943 28.3287 68.0784 28.3888 68.1838 28.4939C68.2892 28.5991 68.3494 28.7343 68.3494 28.8996C68.3494 29.0648 68.2892 29.2 68.1838 29.3052C67.7774 29.7559 67.3258 30.0714 66.8141 30.2667C66.3023 30.462 65.7153 30.5522 65.0531 30.5522C64.4359 30.5522 63.864 30.447 63.3372 30.2216C62.8104 29.9963 62.3287 29.6958 61.9374 29.3052C61.531 28.9146 61.2149 28.4489 60.9891 27.908C60.7633 27.3671 60.6429 26.7812 60.6429 26.1502C60.6429 25.5343 60.7633 24.9634 60.9891 24.4375C61.2149 23.9117 61.531 23.446 61.9223 23.0403C62.3137 22.6497 62.7953 22.3192 63.3372 22.0938C63.879 21.8535 64.466 21.7182 65.1133 21.7032C65.7003 21.7032 66.2572 21.8234 66.7689 22.0488C67.2957 22.2741 67.7473 22.5896 68.1537 22.9802C68.5601 23.3708 68.8762 23.8366 69.117 24.3624C69.3578 24.8882 69.4933 25.4441 69.5083 26.0451C69.5384 26.2554 69.4782 26.4056 69.3578 26.5258C69.2374 26.646 69.0869 26.6911 68.9514 26.6911H61.8019V26.6761ZM65.0531 22.845C64.6467 22.845 64.2704 22.9201 63.9091 23.0553C63.5479 23.1906 63.2168 23.3859 62.9308 23.6262C62.6448 23.8666 62.404 24.1521 62.2083 24.4826C62.0126 24.8131 61.8922 25.1737 61.817 25.5493H68.3042C68.2289 25.1737 68.0935 24.8131 67.8978 24.4826C67.7021 24.1521 67.4613 23.8666 67.1753 23.6262C66.8893 23.3859 66.5582 23.2056 66.197 23.0553C65.8357 22.9201 65.4594 22.845 65.0531 22.845Z" fill="url(#paint1_linear_2_72)"/>
<path d="M75.2279 24.5126C75.2279 24.3474 75.2881 24.2122 75.3935 24.107C75.4989 24.0018 75.6343 23.9417 75.7999 23.9417C75.9655 23.9417 76.1009 24.0018 76.2063 24.107C76.3117 24.2122 76.3719 24.3474 76.3719 24.5126V27.5625C76.3719 27.8179 76.417 28.0582 76.5224 28.2836C76.6277 28.5089 76.7481 28.7043 76.9137 28.8845C77.0793 29.0498 77.275 29.185 77.5007 29.2902C77.7265 29.3953 77.9673 29.4404 78.2232 29.4404C78.4791 29.4404 78.7199 29.3953 78.9457 29.2902C79.1715 29.2 79.3671 29.0648 79.5477 28.8845C79.7133 28.7193 79.8488 28.5089 79.9541 28.2836C80.0595 28.0582 80.1047 27.8179 80.1047 27.5625V22.2441C80.1047 22.0788 80.1649 21.9436 80.2702 21.8384C80.3756 21.7333 80.511 21.6732 80.6766 21.6732C80.8422 21.6732 80.9776 21.7333 81.083 21.8384C81.1884 21.9436 81.2486 22.0788 81.2486 22.2441V27.5625C81.2486 27.9831 81.1733 28.3737 81.0077 28.7343C80.8422 29.0949 80.6315 29.4254 80.3605 29.6808C80.0896 29.9512 79.7735 30.1615 79.4123 30.3268C79.051 30.4921 78.6597 30.5672 78.2383 30.5672C77.7265 30.5672 77.2599 30.447 76.8385 30.2216C76.417 29.9963 76.0708 29.6958 75.7848 29.3202C75.5139 29.6958 75.1677 29.9963 74.7613 30.2216C74.3399 30.447 73.8733 30.5672 73.3615 30.5672C72.9401 30.5672 72.5488 30.4921 72.1875 30.3268C71.8263 30.1615 71.4951 29.9512 71.2393 29.6808C70.9683 29.4104 70.7576 29.0949 70.6071 28.7343C70.4566 28.3737 70.3813 27.9831 70.3813 27.5625V22.2441C70.3813 22.0788 70.4415 21.9436 70.5469 21.8384C70.6523 21.7333 70.7877 21.6732 70.9533 21.6732C71.1189 21.6732 71.2543 21.7333 71.3597 21.8384C71.465 21.9436 71.5253 22.0788 71.5253 22.2441V27.5625C71.5253 27.8179 71.5704 28.0582 71.6758 28.2836C71.7661 28.5089 71.9015 28.7043 72.0671 28.8845C72.2327 29.0498 72.4283 29.185 72.6541 29.2902C72.8799 29.3953 73.1207 29.4404 73.3766 29.4404C73.8733 29.4404 74.3098 29.2601 74.671 28.9146C75.0323 28.554 75.2279 28.1183 75.243 27.5775V24.5126H75.2279Z" fill="url(#paint2_linear_2_72)"/>
<path d="M83.3106 26.6761C83.3708 27.0667 83.5063 27.4272 83.702 27.7728C83.8977 28.1033 84.1385 28.4038 84.4245 28.6442C84.7104 28.8845 85.0416 29.0798 85.4028 29.2151C85.7641 29.3503 86.1554 29.4254 86.5618 29.4254C87.0133 29.4254 87.4348 29.3503 87.8261 29.185C88.2175 29.0198 88.5637 28.7944 88.8797 28.4939C88.9851 28.3888 89.1206 28.3287 89.2861 28.3287C89.4517 28.3287 89.5872 28.3888 89.6925 28.4939C89.7979 28.5991 89.8581 28.7343 89.8581 28.8996C89.8581 29.0648 89.7979 29.2 89.6925 29.3052C89.2861 29.7559 88.8346 30.0714 88.3228 30.2667C87.8111 30.462 87.2241 30.5522 86.5618 30.5522C85.9447 30.5522 85.3727 30.447 84.8459 30.2216C84.3191 29.9963 83.8375 29.6958 83.4461 29.3052C83.0397 28.9146 82.7236 28.4489 82.4979 27.908C82.2721 27.3671 82.1517 26.7812 82.1517 26.1502C82.1517 25.5343 82.2721 24.9634 82.4979 24.4375C82.7236 23.9117 83.0397 23.446 83.4311 23.0403C83.8224 22.6497 84.3041 22.3192 84.8459 22.0938C85.3878 21.8535 85.9748 21.7182 86.622 21.7032C87.209 21.7032 87.7659 21.8234 88.2777 22.0488C88.8045 22.2741 89.256 22.5896 89.6624 22.9802C90.0688 23.3708 90.3849 23.8366 90.6257 24.3624C90.8666 24.8882 91.002 25.4441 91.0171 26.0451C91.0472 26.2554 90.987 26.4056 90.8666 26.5258C90.7461 26.646 90.5956 26.6911 90.4602 26.6911H83.3106V26.6761ZM86.5618 22.845C86.1554 22.845 85.7791 22.9201 85.4179 23.0553C85.0566 23.1906 84.7255 23.3859 84.4395 23.6262C84.1535 23.8666 83.9127 24.1521 83.717 24.4826C83.5214 24.8131 83.4009 25.1737 83.3257 25.5493H89.8129C89.7377 25.1737 89.6022 24.8131 89.4065 24.4826C89.2109 24.1521 88.9701 23.8666 88.6841 23.6262C88.3981 23.3859 88.067 23.2056 87.7057 23.0553C87.3445 22.9201 86.9682 22.845 86.5618 22.845Z" fill="url(#paint3_linear_2_72)"/>
<path d="M96.3152 21.6882C96.9022 21.6882 97.4591 21.8084 98.001 22.0488C98.5278 22.2891 98.9944 22.6046 99.4008 23.0103C99.8072 23.4159 100.123 23.8817 100.364 24.4225C100.605 24.9634 100.725 25.5343 100.725 26.1502C100.725 26.7512 100.605 27.3071 100.379 27.8479C100.153 28.3737 99.8373 28.8395 99.4309 29.2451C99.0396 29.6508 98.5579 29.9663 98.0311 30.1916C97.4892 30.417 96.9173 30.5372 96.2851 30.5372C95.668 30.5372 95.096 30.432 94.5692 30.2066C94.0424 29.9813 93.5608 29.6808 93.1694 29.2902C92.763 28.8996 92.447 28.4338 92.2212 27.893C91.9954 27.3521 91.875 26.7662 91.875 26.1352V19.3445C91.875 19.1792 91.9352 19.044 92.0406 18.9389C92.1459 18.8337 92.2814 18.7736 92.447 18.7736C92.6125 18.7736 92.748 18.8337 92.8534 18.9389C92.9587 19.044 93.0189 19.1792 93.0189 19.3445V23.3408C93.4253 22.9051 93.907 22.5145 94.4639 22.199C95.0057 21.8835 95.6379 21.7182 96.3152 21.6882ZM92.9888 26.1502C92.9888 26.6009 93.0791 27.0216 93.2447 27.4272C93.4103 27.8179 93.6511 28.1784 93.9521 28.4789C94.2532 28.7794 94.5993 29.0198 95.0057 29.185C95.3971 29.3503 95.8336 29.4404 96.2851 29.4404C96.7367 29.4404 97.1732 29.3503 97.5645 29.185C97.9709 29.0198 98.3171 28.7794 98.6181 28.4789C98.9191 28.1784 99.16 27.8329 99.3255 27.4272C99.4911 27.0366 99.5814 26.6009 99.5814 26.1502C99.5814 25.6995 99.4911 25.2638 99.3255 24.8732C99.16 24.4676 98.9191 24.122 98.6181 23.8216C98.3171 23.5211 97.9709 23.2807 97.5645 23.1155C97.1581 22.9502 96.7367 22.86 96.2851 22.86C95.8486 22.86 95.4272 22.9352 95.0358 23.1004C94.6445 23.2657 94.2983 23.491 94.0123 23.7915C93.7113 24.092 93.4855 24.4375 93.2898 24.8432C93.1092 25.2338 93.0039 25.6695 92.9888 26.1502Z" fill="url(#paint4_linear_2_72)"/>
<path d="M27.4993 17.5567C27.4993 16.8355 27.0477 16.1895 26.235 15.7088C24.6997 14.8224 22.2764 14.8224 20.7411 15.7088C19.9283 16.1745 19.4768 16.8355 19.4768 17.5567V19.7351C19.4768 20.4563 19.9283 21.1023 20.7411 21.568C21.5087 22.0187 22.5022 22.229 23.4805 22.229C24.4739 22.229 25.4523 22.0037 26.2199 21.568C27.0327 21.1023 27.4842 20.4412 27.4842 19.7351V17.5717C27.4993 17.5717 27.4993 17.5567 27.4993 17.5567ZM21.1927 16.49C21.8098 16.1294 22.6527 15.9492 23.4956 15.9492C24.3385 15.9492 25.1663 16.1294 25.7985 16.49C26.3253 16.7905 26.6112 17.1661 26.6112 17.5567C26.6112 17.9473 26.3253 18.3229 25.7985 18.6234C24.5492 19.3445 22.457 19.3445 21.2077 18.6234C20.6809 18.3229 20.3949 17.9473 20.3949 17.5567C20.3949 17.1661 20.6659 16.7905 21.1927 16.49ZM25.7834 20.7868C24.5341 21.5079 22.4419 21.5079 21.1927 20.7868C20.6659 20.4863 20.3799 20.0957 20.3799 19.7201V19.1342C20.5003 19.2243 20.6207 19.2994 20.7562 19.3745C21.5238 19.8253 22.5172 20.0356 23.4956 20.0356C24.489 20.0356 25.4673 19.8102 26.235 19.3745C26.3704 19.2994 26.4908 19.2093 26.6112 19.1342V19.7201C26.5962 20.1107 26.3102 20.4863 25.7834 20.7868Z" fill="url(#paint5_linear_2_72)"/>
<path d="M23.5106 39.987C23.5257 39.987 23.5257 39.987 23.5407 39.987C23.5558 39.987 23.5708 39.987 23.5708 39.987C23.5859 39.987 23.6009 39.987 23.6009 39.987C23.616 39.987 23.616 39.987 23.631 39.972C23.6461 39.972 23.6461 39.972 23.6611 39.957C23.6762 39.957 23.6912 39.942 23.6912 39.942C23.7063 39.942 23.7063 39.927 23.7213 39.927H23.7364L35.3713 33.2114C35.4465 33.1663 35.5067 33.1062 35.5368 33.0461C35.5519 33.0161 35.5669 32.986 35.582 32.971C35.582 32.971 35.582 32.956 35.597 32.956C35.6121 32.9259 35.6121 32.9109 35.6121 32.8808C35.6121 32.8658 35.6121 32.8508 35.6121 32.8508C35.6121 32.8358 35.6121 32.8057 35.6121 32.7907V32.7757V19.3595V19.3445C35.6121 19.3295 35.6121 19.3145 35.6121 19.3145C35.6121 19.2994 35.6121 19.2994 35.6121 19.2844C35.6121 19.2694 35.6121 19.2694 35.6121 19.2544C35.6121 19.2393 35.6121 19.2243 35.597 19.2093V19.1943V19.1792V19.1642C35.597 19.1492 35.582 19.1342 35.5669 19.1192C35.5669 19.1041 35.5519 19.1041 35.5519 19.0891C35.5067 19.029 35.4465 18.9689 35.3863 18.9238L23.7514 12.2083H23.7364C23.7213 12.1932 23.7063 12.1932 23.6912 12.1932C23.6762 12.1932 23.6611 12.1782 23.6461 12.1782C23.631 12.1782 23.616 12.1632 23.6009 12.1632C23.5859 12.1632 23.5708 12.1632 23.5558 12.1482C23.5407 12.1482 23.5257 12.1482 23.5106 12.1482C23.4956 12.1482 23.4805 12.1482 23.4655 12.1482C23.4504 12.1482 23.4354 12.1482 23.4203 12.1632C23.4052 12.1632 23.3902 12.1632 23.3751 12.1782C23.3601 12.1782 23.345 12.1932 23.33 12.1932C23.3149 12.1932 23.2999 12.2083 23.2848 12.2083H23.2698L11.5897 18.8788C11.5145 18.9238 11.4543 18.9839 11.4242 19.044C11.4242 19.0591 11.4091 19.0591 11.4091 19.0741C11.3941 19.0891 11.3941 19.1041 11.379 19.1192V19.1342V19.1492V19.1642C11.379 19.1792 11.364 19.1943 11.364 19.2093C11.364 19.2243 11.364 19.2243 11.364 19.2393C11.364 19.2544 11.364 19.2544 11.364 19.2694C11.364 19.2844 11.364 19.2994 11.364 19.2994V19.3145V32.7306V32.7456C11.364 32.7607 11.364 32.7907 11.364 32.8057C11.364 32.8208 11.364 32.8358 11.364 32.8358C11.364 32.8658 11.379 32.8808 11.379 32.9109C11.379 32.9109 11.379 32.9259 11.3941 32.9259C11.4091 32.956 11.4242 32.986 11.4392 33.001C11.4844 33.0611 11.5446 33.1212 11.6048 33.1663L23.2397 39.8819H23.2547C23.2698 39.8819 23.2698 39.8969 23.2848 39.8969C23.2999 39.8969 23.3149 39.9119 23.3149 39.9119C23.33 39.9119 23.33 39.927 23.345 39.927C23.3601 39.927 23.3601 39.927 23.3751 39.927C23.3902 39.927 23.4052 39.927 23.4052 39.927C23.4203 39.927 23.4354 39.927 23.4354 39.927C23.4504 39.927 23.4504 39.927 23.4655 39.927C23.4805 39.987 23.5106 39.987 23.5106 39.987ZM22.9688 38.5598L12.3875 32.4602V20.2459L22.9688 26.3455V38.5598ZM23.4956 25.4441L12.8992 19.3295L23.4956 13.2148L34.0919 19.3295L23.4956 25.4441ZM34.6036 32.4452L24.0224 38.5448V26.3305L34.6036 20.2309V32.4452Z" fill="url(#paint6_linear_2_72)"/>
<path d="M21.1927 28.7794C21.0873 28.6291 20.9669 28.509 20.8314 28.4188C20.5906 28.2836 20.41 28.3137 20.2896 28.3587C20.0939 28.4338 19.9885 28.6141 19.9885 28.8395V32.2649C19.9885 32.37 19.9735 32.4602 19.9283 32.5203C19.8982 32.5654 19.8681 32.5954 19.823 32.6255C19.7628 32.6555 19.6875 32.6555 19.5972 32.6405C19.4918 32.6255 19.3714 32.5804 19.236 32.5053C19.1005 32.4301 18.965 32.31 18.8296 32.1898C18.6941 32.0546 18.5887 31.9193 18.4984 31.7691C18.4081 31.6189 18.3329 31.4536 18.2727 31.3034C18.2275 31.1531 18.1974 31.0179 18.1974 30.8827V28.9146C18.1974 28.7493 18.1522 28.5841 18.0469 28.4338C17.9566 28.2836 17.8211 28.1634 17.6856 28.0733C17.4448 27.9381 17.2642 27.9681 17.1438 28.0132C17.0535 28.0432 16.8428 28.1784 16.8428 28.4939V30.447C16.8277 30.7475 16.7073 30.8076 16.6621 30.8226C16.5267 30.8827 16.331 30.8376 16.1052 30.7024C15.9698 30.6273 15.8343 30.5221 15.6988 30.3869C15.5634 30.2517 15.458 30.1165 15.3677 29.9663C15.2774 29.816 15.2021 29.6658 15.1419 29.5005C15.0968 29.3503 15.0667 29.2151 15.0667 29.0799V25.6545C15.0667 25.4892 15.0215 25.3239 14.9161 25.1737C14.8108 25.0235 14.6904 24.9033 14.5549 24.8131C14.3141 24.6779 14.1335 24.708 14.0281 24.753C13.8324 24.8282 13.7271 25.0084 13.7271 25.2338V28.6592C13.7271 28.9597 13.7873 29.2752 13.8926 29.6057C13.998 29.9212 14.1485 30.2217 14.3291 30.5221C14.5098 30.8076 14.7355 31.093 14.9914 31.3484C15.2473 31.6038 15.5182 31.8142 15.8192 31.9945C16.1955 32.2048 16.5417 32.325 16.8578 32.34C17.0685 32.355 17.2491 32.325 17.4147 32.2499C17.5803 32.5203 17.7609 32.7757 17.9716 33.001C18.2576 33.3316 18.5887 33.587 18.95 33.7973C19.251 33.9776 19.537 34.0827 19.823 34.1278C19.9133 34.1428 20.0036 34.1428 20.0789 34.1428C20.2745 34.1428 20.4401 34.1128 20.6057 34.0377C20.8465 33.9325 21.0271 33.7673 21.1626 33.5269C21.298 33.3015 21.3582 33.0311 21.3582 32.7006V29.2752C21.3432 29.0949 21.298 28.9446 21.1927 28.7794Z" fill="url(#paint7_linear_2_72)"/>
<path d="M25.7834 28.7794C25.8888 28.6291 26.0092 28.509 26.1447 28.4188C26.3855 28.2836 26.5661 28.3137 26.6865 28.3587C26.8822 28.4338 26.9875 28.6141 26.9875 28.8395V32.2649C26.9875 32.37 27.0026 32.4602 27.0477 32.5203C27.0779 32.5654 27.108 32.5954 27.1531 32.6255C27.2133 32.6555 27.2886 32.6555 27.3789 32.6405C27.4842 32.6255 27.6047 32.5804 27.7401 32.5053C27.8756 32.4301 28.0111 32.31 28.1465 32.1898C28.282 32.0546 28.3873 31.9193 28.4776 31.7691C28.568 31.6189 28.6432 31.4536 28.7034 31.3034C28.7486 31.1531 28.7787 31.0179 28.7787 30.8827V28.9146C28.7787 28.7493 28.8238 28.5841 28.9292 28.4338C29.0195 28.2836 29.155 28.1634 29.2904 28.0733C29.5313 27.9381 29.7119 27.9681 29.8323 28.0132C29.9226 28.0432 30.1333 28.1784 30.1333 28.4939V30.447C30.1484 30.7475 30.2688 30.8076 30.3139 30.8226C30.4494 30.8827 30.6451 30.8376 30.8709 30.7024C31.0063 30.6273 31.1418 30.5221 31.2772 30.3869C31.4127 30.2517 31.5181 30.1165 31.6084 29.9663C31.6987 29.816 31.7739 29.6658 31.8342 29.5005C31.8793 29.3503 31.9094 29.2151 31.9094 29.0799V25.6545C31.9094 25.4892 31.9546 25.3239 32.0599 25.1737C32.1653 25.0235 32.2857 24.9033 32.4212 24.8131C32.662 24.6779 32.8426 24.708 32.948 24.753C33.1436 24.8282 33.249 25.0084 33.249 25.2338V28.6592C33.249 28.9597 33.1888 29.2752 33.0834 29.6057C32.9781 29.9212 32.8276 30.2217 32.6469 30.5221C32.4663 30.8076 32.2405 31.093 31.9847 31.3484C31.7288 31.6038 31.4579 31.8142 31.1568 31.9945C30.7805 32.2048 30.4344 32.325 30.1183 32.34C29.9076 32.355 29.7269 32.325 29.5614 32.2499C29.3958 32.5203 29.2152 32.7757 29.0045 33.001C28.7185 33.3316 28.3873 33.587 28.0261 33.7973C27.7251 33.9776 27.4391 34.0827 27.1531 34.1278C27.0628 34.1428 26.9725 34.1428 26.8972 34.1428C26.7016 34.1428 26.536 34.1128 26.3704 34.0377C26.1296 33.9325 25.949 33.7673 25.8135 33.5269C25.6781 33.3015 25.6178 33.0311 25.6178 32.7006V29.2752C25.6329 29.0949 25.6781 28.9446 25.7834 28.7794Z" fill="url(#paint8_linear_2_72)"/>
<path d="M23.4956 10.1951C23.2096 10.1951 22.9688 9.95471 22.9688 9.66926V5.49267C22.9688 5.20722 23.2096 4.96684 23.4956 4.96684C23.7815 4.96684 24.0224 5.20722 24.0224 5.49267V9.66926C24.0073 9.96973 23.7815 10.1951 23.4956 10.1951Z" fill="url(#paint9_linear_2_72)"/>
<path d="M23.4956 47.1083C23.2096 47.1083 22.9688 46.8679 22.9688 46.5824V42.4059C22.9688 42.1204 23.2096 41.88 23.4956 41.88C23.7815 41.88 24.0224 42.1204 24.0224 42.4059V46.5975C24.0073 46.8829 23.7815 47.1083 23.4956 47.1083Z" fill="url(#paint10_linear_2_72)"/>
<path d="M37.5688 26.0451C37.5688 25.7596 37.8096 25.5192 38.0956 25.5192H42.28C42.5659 25.5192 42.8068 25.7596 42.8068 26.0451C42.8068 26.3305 42.5659 26.5709 42.28 26.5709H38.0956C37.8096 26.5709 37.5688 26.3305 37.5688 26.0451Z" fill="url(#paint11_linear_2_72)"/>
<path d="M4.16929 26.0451C4.16929 25.7596 4.41012 25.5192 4.6961 25.5192H8.88044C9.16642 25.5192 9.40725 25.7596 9.40725 26.0451C9.40725 26.3305 9.16642 26.5709 8.88044 26.5709H4.6961C4.41012 26.5709 4.16929 26.3305 4.16929 26.0451Z" fill="url(#paint12_linear_2_72)"/>
<path d="M35.6121 13.8909C35.8228 14.1012 35.8228 14.4318 35.6121 14.6271L34.4983 15.7388C34.2876 15.9491 33.9564 15.9491 33.7608 15.7388C33.55 15.5285 33.55 15.198 33.7608 15.0027L34.8746 13.8909C35.0853 13.6806 35.4164 13.6806 35.6121 13.8909Z" fill="url(#paint13_linear_2_72)"/>
<path d="M11.364 38.1992C11.1532 37.9889 11.1532 37.6584 11.364 37.4631L12.4778 36.3513C12.6885 36.141 13.0196 36.141 13.2153 36.3513C13.426 36.5616 13.426 36.8922 13.2153 37.0875L12.1015 38.1992C11.8908 38.3945 11.5596 38.3945 11.364 38.1992Z" fill="url(#paint14_linear_2_72)"/>
<path d="M11.364 13.8909C11.1532 14.1012 11.1532 14.4318 11.364 14.6271L12.4778 15.7388C12.6885 15.9491 13.0196 15.9491 13.2153 15.7388C13.426 15.5285 13.426 15.198 13.2153 15.0027L12.1015 13.8909C11.8908 13.6806 11.5596 13.6806 11.364 13.8909Z" fill="url(#paint15_linear_2_72)"/>
<path d="M35.6121 38.1992C35.8228 37.9889 35.8228 37.6584 35.6121 37.4631L34.4983 36.3513C34.2876 36.141 33.9564 36.141 33.7608 36.3513C33.55 36.5616 33.55 36.8922 33.7608 37.0875L34.8746 38.1992C35.0853 38.3945 35.4164 38.3945 35.6121 38.1992Z" fill="url(#paint16_linear_2_72)"/>
<defs>
<linearGradient id="paint0_linear_2_72" x1="18.5816" y1="43.6542" x2="90.9251" y2="7.03848" gradientUnits="userSpaceOnUse">
<stop offset="0.1652" stop-color="#B9053E"/>
<stop offset="0.8665" stop-color="#E73455"/>
</linearGradient>
<linearGradient id="paint1_linear_2_72" x1="20.9868" y1="48.4065" x2="93.3304" y2="11.7907" gradientUnits="userSpaceOnUse">
<stop offset="0.1652" stop-color="#B9053E"/>
<stop offset="0.8665" stop-color="#E73455"/>
</linearGradient>
<linearGradient id="paint2_linear_2_72" x1="22.9553" y1="52.2953" x2="95.2987" y2="15.6798" gradientUnits="userSpaceOnUse">
<stop offset="0.1652" stop-color="#B9053E"/>
<stop offset="0.8665" stop-color="#E73455"/>
</linearGradient>
<linearGradient id="paint3_linear_2_72" x1="25.3604" y1="57.0476" x2="97.704" y2="20.4319" gradientUnits="userSpaceOnUse">
<stop offset="0.1652" stop-color="#B9053E"/>
<stop offset="0.8665" stop-color="#E73455"/>
</linearGradient>
<linearGradient id="paint4_linear_2_72" x1="26.4281" y1="59.157" x2="98.7716" y2="22.5413" gradientUnits="userSpaceOnUse">
<stop offset="0.1652" stop-color="#B9053E"/>
<stop offset="0.8665" stop-color="#E73455"/>
</linearGradient>
<linearGradient id="paint5_linear_2_72" x1="9.49312" y1="25.6976" x2="81.8366" y2="-10.9181" gradientUnits="userSpaceOnUse">
<stop offset="0.1652" stop-color="#B9053E"/>
<stop offset="0.8665" stop-color="#E73455"/>
</linearGradient>
<linearGradient id="paint6_linear_2_72" x1="12.4786" y1="31.5962" x2="84.8221" y2="-5.01951" gradientUnits="userSpaceOnUse">
<stop offset="0.1652" stop-color="#B9053E"/>
<stop offset="0.8665" stop-color="#E73455"/>
</linearGradient>
<linearGradient id="paint7_linear_2_72" x1="12.5635" y1="31.7639" x2="84.907" y2="-4.85176" gradientUnits="userSpaceOnUse">
<stop offset="0.1652" stop-color="#B9053E"/>
<stop offset="0.8665" stop-color="#E73455"/>
</linearGradient>
<linearGradient id="paint8_linear_2_72" x1="15.156" y1="36.886" x2="87.4995" y2="0.270418" gradientUnits="userSpaceOnUse">
<stop offset="0.1652" stop-color="#B9053E"/>
<stop offset="0.8665" stop-color="#E73455"/>
</linearGradient>
<linearGradient id="paint9_linear_2_72" x1="5.03587" y1="16.8912" x2="77.3793" y2="-19.7245" gradientUnits="userSpaceOnUse">
<stop offset="0.1652" stop-color="#B9053E"/>
<stop offset="0.8665" stop-color="#E73455"/>
</linearGradient>
<linearGradient id="paint10_linear_2_72" x1="19.9215" y1="46.3016" x2="92.265" y2="9.68591" gradientUnits="userSpaceOnUse">
<stop offset="0.1652" stop-color="#B9053E"/>
<stop offset="0.8665" stop-color="#E73455"/>
</linearGradient>
<linearGradient id="paint11_linear_2_72" x1="15.8749" y1="38.3064" x2="88.2185" y2="1.69077" gradientUnits="userSpaceOnUse">
<stop offset="0.1652" stop-color="#B9053E"/>
<stop offset="0.8665" stop-color="#E73455"/>
</linearGradient>
<linearGradient id="paint12_linear_2_72" x1="9.0825" y1="24.8863" x2="81.4261" y2="-11.7293" gradientUnits="userSpaceOnUse">
<stop offset="0.1652" stop-color="#B9053E"/>
<stop offset="0.8665" stop-color="#E73455"/>
</linearGradient>
<linearGradient id="paint13_linear_2_72" x1="10.2299" y1="27.153" x2="82.5731" y2="-9.46241" gradientUnits="userSpaceOnUse">
<stop offset="0.1652" stop-color="#B9053E"/>
<stop offset="0.8665" stop-color="#E73455"/>
</linearGradient>
<linearGradient id="paint14_linear_2_72" x1="14.7276" y1="36.0397" x2="87.0711" y2="-0.575955" gradientUnits="userSpaceOnUse">
<stop offset="0.1652" stop-color="#B9053E"/>
<stop offset="0.8665" stop-color="#E73455"/>
</linearGradient>
<linearGradient id="paint15_linear_2_72" x1="5.67508" y1="18.1541" x2="78.0185" y2="-18.4616" gradientUnits="userSpaceOnUse">
<stop offset="0.1652" stop-color="#B9053E"/>
<stop offset="0.8665" stop-color="#E73455"/>
</linearGradient>
<linearGradient id="paint16_linear_2_72" x1="19.2824" y1="45.0386" x2="91.6257" y2="8.42327" gradientUnits="userSpaceOnUse">
<stop offset="0.1652" stop-color="#B9053E"/>
<stop offset="0.8665" stop-color="#E73455"/>
</linearGradient>
</defs>
</svg>
