<svg width="32" height="32" viewBox="0 0 32 32" fill="none" xmlns="http://www.w3.org/2000/svg">
<path d="M24.3039 4.65454H19.7042H10.0733C6.91451 4.65454 4.34192 7.41236 4.34192 10.7985V10.8334V10.8684C4.34192 12.5091 4.93622 14.0538 6.01899 15.2145C6.88195 16.1396 7.97285 16.7331 9.16146 16.9338V17.0124H9.1696L9.19402 20.2589H7.65535C5.83174 20.2589 4.35006 21.8473 4.35006 23.8022C4.35006 25.7571 5.83174 27.3455 7.65535 27.3455H7.72048C9.54409 27.3455 11.0258 25.7571 11.0258 23.8022V22.2138H17.2863C19.1262 22.2138 20.6241 20.608 20.6241 18.6356C20.6241 16.6633 19.1262 15.0575 17.2863 15.0575H11.099C11.5142 13.1985 13.0773 11.8109 14.9335 11.8109H19.7205H24.3202C26.1601 11.8109 27.6581 10.2051 27.6581 8.23272C27.6418 6.26036 26.1438 4.65454 24.3039 4.65454ZM9.19402 23.8022C9.19402 24.6749 8.52645 25.3905 7.71234 25.3905H7.64721C6.8331 25.3905 6.16553 24.6749 6.16553 23.8022C6.16553 22.9295 6.8331 22.2138 7.64721 22.2138H9.19402V23.8022ZM17.2863 17.0124C18.1248 17.0124 18.8005 17.7367 18.8005 18.6356C18.8005 19.5345 18.1248 20.2589 17.2863 20.2589H11.0258H11.0176L10.9932 17.0124H17.2863ZM24.3039 9.85599H19.7042H14.9172C12.0841 9.85599 9.71505 12.064 9.24287 14.9614C8.51017 14.7956 7.8426 14.4116 7.30528 13.8269C6.56444 13.0327 6.16553 11.9855 6.16553 10.8684V10.8334V10.7985C6.16553 8.48582 7.91587 6.60945 10.0733 6.60945H19.7123H24.3121C25.1506 6.60945 25.8263 7.33381 25.8263 8.23272C25.8182 9.13163 25.1425 9.85599 24.3039 9.85599Z" fill="url(#paint0_linear_944_1730)"/>
<defs>
<linearGradient id="paint0_linear_944_1730" x1="-13.9692" y1="8.73805" x2="28.1195" y2="17.6191" gradientUnits="userSpaceOnUse">
<stop offset="0.3256" stop-color="#6A2C8A"/>
<stop offset="1" stop-color="#EC5168"/>
</linearGradient>
</defs>
</svg>
