<svg width="256" height="256" viewBox="0 0 256 256" fill="none" xmlns="http://www.w3.org/2000/svg">
<path d="M194.431 37.2363H157.634H80.5861C55.3161 37.2363 34.7354 59.2989 34.7354 86.3883V86.6676V86.9469C34.7354 100.073 39.4898 112.431 48.1519 121.716C55.0556 129.117 63.7828 133.865 73.2917 135.471V136.099H73.3568L73.5522 162.071H61.2428C46.6539 162.071 34.8005 174.778 34.8005 190.417C34.8005 206.057 46.6539 218.764 61.2428 218.764H61.7638C76.3527 218.764 88.2062 206.057 88.2062 190.417V177.711H138.29C153.009 177.711 164.993 164.864 164.993 149.085C164.993 133.306 153.009 120.46 138.29 120.46H88.7923C92.1139 105.588 104.619 94.4872 119.468 94.4872H157.764H194.562C209.281 94.4872 221.265 81.6407 221.265 65.8618C221.134 50.0829 209.151 37.2363 194.431 37.2363ZM73.5522 190.417C73.5522 197.399 68.2116 203.124 61.6987 203.124H61.1777C54.6648 203.124 49.3242 197.399 49.3242 190.417C49.3242 183.436 54.6648 177.711 61.1777 177.711H73.5522V190.417ZM138.29 136.099C144.999 136.099 150.404 141.894 150.404 149.085C150.404 156.276 144.999 162.071 138.29 162.071H88.2062H88.1411L87.9457 136.099H138.29ZM194.431 78.8479H157.634H119.338C96.6729 78.8479 77.7204 96.512 73.9429 119.692C68.0813 118.365 62.7408 115.293 58.4423 110.615C52.5155 104.262 49.3242 95.8836 49.3242 86.9469V86.6676V86.3883C49.3242 67.8865 63.3269 52.8756 80.5861 52.8756H157.699H194.497C201.205 52.8756 206.611 58.6705 206.611 65.8618C206.545 73.0531 201.14 78.8479 194.431 78.8479Z" fill="url(#paint0_linear_944_1728)"/>
<defs>
<linearGradient id="paint0_linear_944_1728" x1="-111.753" y1="69.9044" x2="224.956" y2="140.952" gradientUnits="userSpaceOnUse">
<stop offset="0.3256" stop-color="#6A2C8A"/>
<stop offset="1" stop-color="#EC5168"/>
</linearGradient>
</defs>
</svg>
